<?xml version="1.0" standalone="no"?>
 <!DOCTYPE svg PUBLIC "-//W3C//DTD SVG 1.1//EN" 
 "http://www.w3.org/Graphics/SVG/1.1/DTD/svg11.dtd"> 
<svg xmlns="http://www.w3.org/2000/svg" version="1.1" 
    width="12.1031cm" height="3.64236cm" viewBox="0 0 47650 14340 ">
<title>SVG Picture created as ROFLtemp_1-F.CrtYd.svg date 2017/05/18 16:46:42 </title>
  <desc>Picture generated by PCBNEW </desc>
<g style="fill:#000000; fill-opacity:1;stroke:#000000; stroke-opacity:1;
stroke-linecap:round; stroke-linejoin:round; "
 transform="translate(0 0) scale(1 1)">
</g>
<g style="fill:#C2C200; fill-opacity:0.0; 
stroke:#C2C200; stroke-width:-0.000393701; stroke-opacity:1; 
stroke-linecap:round; stroke-linejoin:round;">
</g>
<g style="fill:#C2C200; fill-opacity:0.0; 
stroke:#C2C200; stroke-width:59.0551; stroke-opacity:1; 
stroke-linecap:round; stroke-linejoin:round;">
<path d="M41537 10955
L1379 10955
" />
<path d="M1379 1348
L41537 1348
" />
<path d="M1379 1348
L1379 10955
" />
<path d="M41537 10955
L41537 1348
" />
</g>
<g style="fill:#848484; fill-opacity:0.0; 
stroke:#848484; stroke-width:59.0551; stroke-opacity:1; 
stroke-linecap:round; stroke-linejoin:round;">
</g>
<g style="fill:#848484; fill-opacity:0.0; 
stroke:#848484; stroke-width:19.685; stroke-opacity:1; 
stroke-linecap:round; stroke-linejoin:round;">
<path d="M31832 7195
L30612 7195
" />
<path d="M31832 7195
L31832 5738
" />
<path d="M30612 5738
L30612 7195
" />
<path d="M30612 5738
L31832 5738
" />
<path d="M26124 2443
L24746 2443
" />
<path d="M26124 2443
L26124 1754
" />
<path d="M24746 1754
L24746 2443
" />
<path d="M24746 1754
L26124 1754
" />
<path d="M37482 4931
L37482 5718
" />
<path d="M37482 4931
L37167 4931
" />
<path d="M37167 5718
L37482 5718
" />
<path d="M37167 5718
L37167 4931
" />
<path d="M10868 5797
L10080 5797
" />
<path d="M10868 5797
L10868 5482
" />
<path d="M10080 5482
L10080 5797
" />
<path d="M10080 5482
L10868 5482
" />
<path d="M38301 4872
L38301 6250
" />
<path d="M38301 4872
L37612 4872
" />
<path d="M37612 6250
L38301 6250
" />
<path d="M37612 6250
L37612 4872
" />
<path d="M39627 6474
L41005 6474
" />
<path d="M39627 6474
L39627 7163
" />
<path d="M41005 7163
L41005 6474
" />
<path d="M41005 7163
L39627 7163
" />
<path d="M14332 6191
L14332 5404
" />
<path d="M14332 6191
L14647 6191
" />
<path d="M14647 5404
L14332 5404
" />
<path d="M14647 5404
L14647 6191
" />
<path d="M13781 6033
L13781 6821
" />
<path d="M13781 6033
L13466 6033
" />
<path d="M13466 6821
L13781 6821
" />
<path d="M13466 6821
L13466 6033
" />
<path d="M38498 7825
L38498 9203
" />
<path d="M38498 7825
L37809 7825
" />
<path d="M37809 9203
L38498 9203
" />
<path d="M37809 9203
L37809 7825
" />
<path d="M13466 5994
L13466 5207
" />
<path d="M13466 5994
L13781 5994
" />
<path d="M13781 5207
L13466 5207
" />
<path d="M13781 5207
L13781 5994
" />
<path d="M41096 7785
L41096 9163
" />
<path d="M41096 7785
L40407 7785
" />
<path d="M40407 9163
L41096 9163
" />
<path d="M40407 9163
L40407 7785
" />
<path d="M33592 9085
L33592 7707
" />
<path d="M33592 9085
L34281 9085
" />
<path d="M34281 7707
L33592 7707
" />
<path d="M34281 7707
L34281 9085
" />
<path d="M13230 4301
L13230 5089
" />
<path d="M13230 4301
L12915 4301
" />
<path d="M12915 5089
L13230 5089
" />
<path d="M12915 5089
L12915 4301
" />
<path d="M12797 5128
L12009 5128
" />
<path d="M12797 5128
L12797 4813
" />
<path d="M12009 4813
L12009 5128
" />
<path d="M12009 4813
L12797 4813
" />
<path d="M10907 5915
L10907 6703
" />
<path d="M10907 5915
L10592 5915
" />
<path d="M10592 6703
L10907 6703
" />
<path d="M10592 6703
L10592 5915
" />
<path d="M10868 7136
L10080 7136
" />
<path d="M10868 7136
L10868 6821
" />
<path d="M10080 6821
L10080 7136
" />
<path d="M10080 6821
L10868 6821
" />
<path d="M11891 4301
L11891 5089
" />
<path d="M11891 4301
L11576 4301
" />
<path d="M11576 5089
L11891 5089
" />
<path d="M11576 5089
L11576 4301
" />
<path d="M35238 8041
L35238 7254
" />
<path d="M35238 8041
L35553 8041
" />
<path d="M35553 7254
L35238 7254
" />
<path d="M35553 7254
L35553 8041
" />
<path d="M35797 9360
L35797 7982
" />
<path d="M35797 9360
L36486 9360
" />
<path d="M36486 7982
L35797 7982
" />
<path d="M36486 7982
L36486 9360
" />
<path d="M36545 9360
L36545 7982
" />
<path d="M36545 9360
L37234 9360
" />
<path d="M37234 7982
L36545 7982
" />
<path d="M37234 7982
L37234 9360
" />
<path d="M31183 2963
L31183 3750
" />
<path d="M31183 2963
L30868 2963
" />
<path d="M30868 3750
L31183 3750
" />
<path d="M30868 3750
L30868 2963
" />
<path d="M32403 2805
L32403 2018
" />
<path d="M32403 2805
L32718 2805
" />
<path d="M32718 2018
L32403 2018
" />
<path d="M32718 2018
L32718 2805
" />
<path d="M31537 4301
L31537 5089
" />
<path d="M31537 4301
L31222 4301
" />
<path d="M31222 5089
L31537 5089
" />
<path d="M31222 5089
L31222 4301
" />
<path d="M32718 4301
L32718 5089
" />
<path d="M32718 4301
L32403 4301
" />
<path d="M32403 5089
L32718 5089
" />
<path d="M32403 5089
L32403 4301
" />
<path d="M22206 2372
L22206 1585
" />
<path d="M22206 2372
L22521 2372
" />
<path d="M22521 1585
L22206 1585
" />
<path d="M22521 1585
L22521 2372
" />
<path d="M22108 2443
L20730 2443
" />
<path d="M22108 2443
L22108 1754
" />
<path d="M20730 1754
L20730 2443
" />
<path d="M20730 1754
L22108 1754
" />
<path d="M26222 2372
L26222 1585
" />
<path d="M26222 2372
L26537 2372
" />
<path d="M26537 1585
L26222 1585
" />
<path d="M26537 1585
L26537 2372
" />
<path d="M18190 2372
L18190 1585
" />
<path d="M18190 2372
L18505 2372
" />
<path d="M18505 1585
L18190 1585
" />
<path d="M18505 1585
L18505 2372
" />
<path d="M18092 2443
L16714 2443
" />
<path d="M18092 2443
L18092 1754
" />
<path d="M16714 1754
L16714 2443
" />
<path d="M16714 1754
L18092 1754
" />
<path d="M40966 9990
L40966 10502
" />
<path d="M40966 10502
L39824 10502
" />
<path d="M39824 10502
L39824 9990
" />
<path d="M39824 9990
L40966 9990
" />
<path d="M39746 9990
L39746 10502
" />
<path d="M39746 10502
L38604 10502
" />
<path d="M38604 10502
L38604 9990
" />
<path d="M38604 9990
L39746 9990
" />
<path d="M7659 2096
L7659 4852
" />
<path d="M7659 4852
L6281 4852
" />
<path d="M6281 4852
L6281 2096
" />
<path d="M6281 2096
L7659 2096
" />
<path d="M7659 7766
L7659 10522
" />
<path d="M7659 10522
L6281 10522
" />
<path d="M6281 10522
L6281 7766
" />
<path d="M6281 7766
L7659 7766
" />
<path d="M6163 2096
L6163 4852
" />
<path d="M6163 4852
L4785 4852
" />
<path d="M4785 4852
L4785 2096
" />
<path d="M4785 2096
L6163 2096
" />
<path d="M6163 7766
L6163 10522
" />
<path d="M6163 10522
L4785 10522
" />
<path d="M4785 10522
L4785 7766
" />
<path d="M4785 7766
L6163 7766
" />
<path d="M37954 4577
L37954 3081
" />
<path d="M37954 3081
L39372 3081
" />
<path d="M39372 3081
L39372 4577
" />
<path d="M39372 4577
L37954 4577
" />
<path d="M41907 1506
L41907 5128
" />
<path d="M39442 1506
L41907 1506
" />
<path d="M39442 5128
L39442 1506
" />
<path d="M41907 5128
L39442 5128
" />
<path d="M10651 7884
L10651 10797
" />
<path d="M10651 10797
L13919 10797
" />
<path d="M13919 10797
L13919 7884
" />
<path d="M13919 7884
L10651 7884
" />
<path d="M4765 7589
L4765 5029
" />
<path d="M4765 5029
L8702 5029
" />
<path d="M8702 5029
L8702 7589
" />
<path d="M8702 7589
L4765 7589
" />
<path d="M39372 2254
L38348 2254
" />
<path d="M39372 1624
L38348 1624
" />
<path d="M39372 2254
L39372 1624
" />
<path d="M38348 2254
L38348 1624
" />
<path d="M39372 2963
L38348 2963
" />
<path d="M39372 2333
L38348 2333
" />
<path d="M39372 2963
L39372 2333
" />
<path d="M38348 2963
L38348 2333
" />
<path d="M38742 5640
L38742 4616
" />
<path d="M39372 5640
L39372 4616
" />
<path d="M38742 5640
L39372 5640
" />
<path d="M38742 4616
L39372 4616
" />
<path d="M29017 4695
L30513 4695
" />
<path d="M29017 4695
L29017 6112
" />
<path d="M30513 6112
L30513 4695
" />
<path d="M30513 6112
L29017 6112
" />
<path d="M29017 3199
L30513 3199
" />
<path d="M29017 3199
L29017 4616
" />
<path d="M30513 4616
L30513 3199
" />
<path d="M30513 4616
L29017 4616
" />
<path d="M16694 6112
L15198 6112
" />
<path d="M16694 6112
L16694 4695
" />
<path d="M15198 4695
L15198 6112
" />
<path d="M15198 4695
L16694 4695
" />
<path d="M16694 7608
L15198 7608
" />
<path d="M16694 7608
L16694 6191
" />
<path d="M15198 6191
L15198 7608
" />
<path d="M15198 6191
L16694 6191
" />
<path d="M16694 9104
L15198 9104
" />
<path d="M16694 9104
L16694 7687
" />
<path d="M15198 7687
L15198 9104
" />
<path d="M15198 7687
L16694 7687
" />
<path d="M29017 6191
L30513 6191
" />
<path d="M29017 6191
L29017 7608
" />
<path d="M30513 7608
L30513 6191
" />
<path d="M30513 7608
L29017 7608
" />
<path d="M29017 7687
L30513 7687
" />
<path d="M29017 7687
L29017 9104
" />
<path d="M30513 9104
L30513 7687
" />
<path d="M30513 9104
L29017 9104
" />
<path d="M16694 4616
L15198 4616
" />
<path d="M16694 4616
L16694 3199
" />
<path d="M15198 3199
L15198 4616
" />
<path d="M15198 3199
L16694 3199
" />
<path d="M38328 6703
L38328 7333
" />
<path d="M38328 6703
L37974 6703
" />
<path d="M37974 7333
L38328 7333
" />
<path d="M37974 7333
L37974 6703
" />
<path d="M38604 9655
L38604 9026
" />
<path d="M38604 9655
L38958 9655
" />
<path d="M38958 9026
L38604 9026
" />
<path d="M38958 9026
L38958 9655
" />
<path d="M39549 6506
L39549 7136
" />
<path d="M39549 6506
L39194 6506
" />
<path d="M39194 7136
L39549 7136
" />
<path d="M39194 7136
L39194 6506
" />
<path d="M40986 7707
L40356 7707
" />
<path d="M40986 7707
L40986 7352
" />
<path d="M40356 7352
L40356 7707
" />
<path d="M40356 7352
L40986 7352
" />
<path d="M38840 6506
L38840 7136
" />
<path d="M38840 6506
L38486 6506
" />
<path d="M38486 7136
L38840 7136
" />
<path d="M38486 7136
L38486 6506
" />
<path d="M37836 7392
L38466 7392
" />
<path d="M37836 7392
L37836 7746
" />
<path d="M38466 7746
L38466 7392
" />
<path d="M38466 7746
L37836 7746
" />
<path d="M40297 9852
L40297 9222
" />
<path d="M40297 9852
L40651 9852
" />
<path d="M40651 9222
L40297 9222
" />
<path d="M40651 9222
L40651 9852
" />
<path d="M39568 9518
L40198 9518
" />
<path d="M39568 9518
L39568 9872
" />
<path d="M40198 9872
L40198 9518
" />
<path d="M40198 9872
L39568 9872
" />
<path d="M39076 9655
L39076 9026
" />
<path d="M39076 9655
L39431 9655
" />
<path d="M39431 9026
L39076 9026
" />
<path d="M39431 9026
L39431 9655
" />
<path d="M39568 9045
L40198 9045
" />
<path d="M39568 9045
L39568 9400
" />
<path d="M40198 9400
L40198 9045
" />
<path d="M40198 9400
L39568 9400
" />
<path d="M12462 4734
L12462 4104
" />
<path d="M12462 4734
L12816 4734
" />
<path d="M12816 4104
L12462 4104
" />
<path d="M12816 4104
L12816 4734
" />
<path d="M11990 4734
L11990 4104
" />
<path d="M11990 4734
L12344 4734
" />
<path d="M12344 4104
L11990 4104
" />
<path d="M12344 4104
L12344 4734
" />
<path d="M10513 6250
L9883 6250
" />
<path d="M10513 6250
L10513 5896
" />
<path d="M9883 5896
L9883 6250
" />
<path d="M9883 5896
L10513 5896
" />
<path d="M10513 6722
L9883 6722
" />
<path d="M10513 6722
L10513 6368
" />
<path d="M9883 6368
L9883 6722
" />
<path d="M9883 6368
L10513 6368
" />
<path d="M9765 5010
L9765 7608
" />
<path d="M8820 5010
L8820 7608
" />
<path d="M9765 5010
L8820 5010
" />
<path d="M9765 7608
L8820 7608
" />
<path d="M12442 4045
L12442 3061
" />
<path d="M12442 4045
L12994 4045
" />
<path d="M12994 3061
L12442 3061
" />
<path d="M12994 3061
L12994 4045
" />
<path d="M11812 4045
L11812 3061
" />
<path d="M11812 4045
L12364 4045
" />
<path d="M12364 3061
L11812 3061
" />
<path d="M12364 3061
L12364 4045
" />
<path d="M34824 7923
L34824 7293
" />
<path d="M34824 7923
L35179 7923
" />
<path d="M35179 7293
L34824 7293
" />
<path d="M35179 7293
L35179 7923
" />
<path d="M37206 3612
L37836 3612
" />
<path d="M37206 3612
L37206 3967
" />
<path d="M37836 3967
L37836 3612
" />
<path d="M37836 3967
L37206 3967
" />
<path d="M37206 3140
L37836 3140
" />
<path d="M37206 3140
L37206 3494
" />
<path d="M37836 3494
L37836 3140
" />
<path d="M37836 3494
L37206 3494
" />
<path d="M31084 4459
L31084 5089
" />
<path d="M31084 4459
L30730 4459
" />
<path d="M30730 5089
L31084 5089
" />
<path d="M30730 5089
L30730 4459
" />
<path d="M14135 10148
L14765 10148
" />
<path d="M14135 10148
L14135 10502
" />
<path d="M14765 10502
L14765 10148
" />
<path d="M14765 10502
L14135 10502
" />
<path d="M15218 10384
L15218 9163
" />
<path d="M15218 10384
L16675 10384
" />
<path d="M16675 9163
L15218 9163
" />
<path d="M16675 9163
L16675 10384
" />
<path d="M29037 10384
L29037 9163
" />
<path d="M29037 10384
L30494 10384
" />
<path d="M30494 9163
L29037 9163
" />
<path d="M30494 9163
L30494 10384
" />
<path d="M16557 3100
L15336 3100
" />
<path d="M16557 3100
L16557 1644
" />
<path d="M15336 1644
L15336 3100
" />
<path d="M15336 1644
L16557 1644
" />
<path d="M30375 3100
L29155 3100
" />
<path d="M30375 3100
L30375 1644
" />
<path d="M29155 1644
L29155 3100
" />
<path d="M29155 1644
L30375 1644
" />
<path d="M38584 7254
L38584 8907
" />
<path d="M40238 7254
L40238 8907
" />
<path d="M38584 7254
L40238 7254
" />
<path d="M38584 8907
L40238 8907
" />
<path d="M13387 5325
L11183 5325
" />
<path d="M13387 7529
L11183 7529
" />
<path d="M13387 5325
L13387 7529
" />
<path d="M11183 5325
L11183 7529
" />
<path d="M33033 1978
L33033 5994
" />
<path d="M37049 1978
L37049 5994
" />
<path d="M33033 1978
L37049 1978
" />
<path d="M33033 5994
L37049 5994
" />
<path d="M32316 4281
L32316 5659
" />
<path d="M32316 4281
L31627 4281
" />
<path d="M31627 5659
L32316 5659
" />
<path d="M31627 5659
L31627 4281
" />
<path d="M32344 2797
L30966 2797
" />
<path d="M32344 2797
L32344 2108
" />
<path d="M30966 2108
L30966 2797
" />
<path d="M30966 2108
L32344 2108
" />
<path d="M36064 10915
L38486 10915
" />
<path d="M38486 10915
L38486 9498
" />
<path d="M38486 9498
L36064 9498
" />
<path d="M36064 9498
L36064 10915
" />
<path d="M11064 1781
L8643 1781
" />
<path d="M8643 1781
L8643 3199
" />
<path d="M8643 3199
L11064 3199
" />
<path d="M11064 3199
L11064 1781
" />
<path d="M39175 6506
L41596 6506
" />
<path d="M41596 6506
L41596 5089
" />
<path d="M41596 5089
L39175 5089
" />
<path d="M39175 5089
L39175 6506
" />
</g> 
</svg>
