<?xml version="1.0" standalone="no"?>
 <!DOCTYPE svg PUBLIC "-//W3C//DTD SVG 1.1//EN" 
 "http://www.w3.org/Graphics/SVG/1.1/DTD/svg11.dtd"> 
<svg xmlns="http://www.w3.org/2000/svg" version="1.1" 
    width="12.1031cm" height="3.64236cm" viewBox="0 0 47650 14340 ">
<title>SVG Picture created as ROFLtemp_1-Dwgs.User.svg date 2017/05/18 16:46:42 </title>
  <desc>Picture generated by PCBNEW </desc>
<g style="fill:#000000; fill-opacity:1;stroke:#000000; stroke-opacity:1;
stroke-linecap:round; stroke-linejoin:round; "
 transform="translate(0 0) scale(1 1)">
</g>
<g style="fill:#C2C200; fill-opacity:0.0; 
stroke:#C2C200; stroke-width:-0.000393701; stroke-opacity:1; 
stroke-linecap:round; stroke-linejoin:round;">
</g>
<g style="fill:#C2C200; fill-opacity:0.0; 
stroke:#C2C200; stroke-width:59.0551; stroke-opacity:1; 
stroke-linecap:round; stroke-linejoin:round;">
<path d="M41537 10955
L1379 10955
" />
<path d="M1379 1348
L41537 1348
" />
<path d="M1379 1348
L1379 10955
" />
<path d="M41537 10955
L41537 1348
" />
</g>
<g style="fill:#C2C2C2; fill-opacity:0.0; 
stroke:#C2C2C2; stroke-width:59.0551; stroke-opacity:1; 
stroke-linecap:round; stroke-linejoin:round;">
</g>
<g style="fill:#C2C2C2; fill-opacity:0.0; 
stroke:#C2C2C2; stroke-width:15.748; stroke-opacity:1; 
stroke-linecap:round; stroke-linejoin:round;">
<path d="M41628 1221
L41470 1221
L41470 1161
L41478 1146
L41485 1138
L41500 1131
L41523 1131
L41538 1138
L41545 1146
L41553 1161
L41553 1221
" />
<path d="M41613 973
L41620 981
L41628 1003
L41628 1018
L41620 1041
L41605 1056
L41590 1063
L41560 1071
L41538 1071
L41508 1063
L41493 1056
L41478 1041
L41470 1018
L41470 1003
L41478 981
L41485 973
" />
<path d="M41545 853
L41553 831
L41560 823
L41575 816
L41598 816
L41613 823
L41620 831
L41628 846
L41628 906
L41470 906
L41470 853
L41478 838
L41485 831
L41500 823
L41515 823
L41530 831
L41538 838
L41545 853
L41545 906
" />
<path d="M41545 576
L41545 628
" />
<path d="M41628 628
L41470 628
L41470 553
" />
<path d="M41628 493
L41523 493
" />
<path d="M41553 493
L41538 486
L41530 478
L41523 463
L41523 448
" />
<path d="M41628 373
L41620 388
L41613 396
L41598 403
L41553 403
L41538 396
L41530 388
L41523 373
L41523 351
L41530 336
L41538 328
L41553 321
L41598 321
L41613 328
L41620 336
L41628 351
L41628 373
" />
<path d="M41523 253
L41628 253
" />
<path d="M41538 253
L41530 246
L41523 231
L41523 208
L41530 193
L41545 186
L41628 186
" />
<path d="M41523 133
L41523 73
" />
<path d="M41470 111
L41605 111
L41620 103
L41628 88
L41628 73
" />
<path d="M41545 -98
L41545 -151
" />
<path d="M41628 -173
L41628 -98
L41470 -98
L41470 -173
" />
<path d="M41628 -308
L41470 -308
" />
<path d="M41620 -308
L41628 -293
L41628 -263
L41620 -248
L41613 -241
L41598 -233
L41553 -233
L41538 -241
L41530 -248
L41523 -263
L41523 -293
L41530 -308
" />
<path d="M41523 -451
L41650 -451
L41665 -443
L41673 -436
L41680 -421
L41680 -398
L41673 -383
" />
<path d="M41620 -451
L41628 -436
L41628 -406
L41620 -391
L41613 -383
L41598 -376
L41553 -376
L41538 -383
L41530 -391
L41523 -406
L41523 -436
L41530 -451
" />
<path d="M41620 -586
L41628 -571
L41628 -541
L41620 -526
L41605 -518
L41545 -518
L41530 -526
L41523 -541
L41523 -571
L41530 -586
L41545 -593
L41560 -593
L41575 -518
" />
</g>
<g style="fill:#C2C2C2; fill-opacity:0.0; 
stroke:#C2C2C2; stroke-width:59.0551; stroke-opacity:1; 
stroke-linecap:round; stroke-linejoin:round;">
<path d="M41529 5285
L41529 1348
" />
</g>
<g style="fill:#C2C2C2; fill-opacity:0.0; 
stroke:#C2C2C2; stroke-width:39.3701; stroke-opacity:1; 
stroke-linecap:round; stroke-linejoin:round;">
<path d="M4379 2297
L4537 2297
" />
<path d="M2411 2297
L4143 2297
" />
<path d="M1387 2297
L2214 2297
" />
<path d="M2214 2526
L2490 2526
" />
<path d="M2214 2297
L2214 2526
" />
<path d="M2490 2526
L2411 2297
" />
<path d="M4419 2526
L4104 2526
" />
<path d="M4143 2297
L4104 2526
" />
<path d="M4419 2526
L4379 2297
" />
<path d="M4183 6297
L2372 6297
" />
<path d="M4537 6297
L4340 6297
" />
<path d="M1387 6297
L2253 6297
" />
<path d="M2253 6297
L2253 6463
" />
<path d="M2253 6463
L2450 6463
" />
<path d="M2450 6463
L2372 6297
" />
<path d="M4340 6297
L4379 6463
" />
<path d="M4379 6463
L4143 6463
" />
<path d="M4143 6463
L4183 6297
" />
<path d="M1269 3313
L1190 3234
" />
<path d="M1269 3313
L1190 3392
" />
<path d="M1269 3313
L1033 3313
" />
<path d="M1269 5321
L1033 5321
" />
<path d="M1269 5321
L1190 5242
" />
<path d="M1269 5321
L1190 5400
" />
<path d="M4537 6297
L4537 2297
" />
<path d="M1387 2297
L1387 6297
" />
<path d="M4379 6297
L4537 6297
" />
<path d="M2411 6297
L4143 6297
" />
<path d="M1387 6297
L2214 6297
" />
<path d="M2214 6526
L2490 6526
" />
<path d="M2214 6297
L2214 6526
" />
<path d="M2490 6526
L2411 6297
" />
<path d="M4419 6526
L4104 6526
" />
<path d="M4143 6297
L4104 6526
" />
<path d="M4419 6526
L4379 6297
" />
<path d="M4183 10297
L2372 10297
" />
<path d="M4537 10297
L4340 10297
" />
<path d="M1387 10297
L2253 10297
" />
<path d="M2253 10297
L2253 10463
" />
<path d="M2253 10463
L2450 10463
" />
<path d="M2450 10463
L2372 10297
" />
<path d="M4340 10297
L4379 10463
" />
<path d="M4379 10463
L4143 10463
" />
<path d="M4143 10463
L4183 10297
" />
<path d="M1269 7313
L1190 7234
" />
<path d="M1269 7313
L1190 7392
" />
<path d="M1269 7313
L1033 7313
" />
<path d="M1269 9321
L1033 9321
" />
<path d="M1269 9321
L1190 9242
" />
<path d="M1269 9321
L1190 9400
" />
<path d="M4537 10297
L4537 6297
" />
<path d="M1387 6297
L1387 10297
" />
</g>
<g style="fill:#C2C2C2; fill-opacity:0.0; 
stroke:#C2C2C2; stroke-width:78.7402; stroke-opacity:1; 
stroke-linecap:round; stroke-linejoin:round;">
<circle cx="31537.4" cy="3868.58" r="39.3701" /> 
<path d="M32639 3022
L32639 4006
" />
<path d="M31379 3022
L31379 4006
" />
<path d="M31379 3022
L32639 3022
" />
<path d="M31379 4006
L32639 4006
" />
</g> 
</svg>
