<?xml version="1.0" standalone="no"?>
 <!DOCTYPE svg PUBLIC "-//W3C//DTD SVG 1.1//EN" 
 "http://www.w3.org/Graphics/SVG/1.1/DTD/svg11.dtd"> 
<svg xmlns="http://www.w3.org/2000/svg" version="1.1" 
    width="12.1031cm" height="3.64236cm" viewBox="0 0 47650 14340 ">
<title>SVG Picture created as ROFLtemp_1-F.Fab.svg date 2017/05/18 16:46:42 </title>
  <desc>Picture generated by PCBNEW </desc>
<g style="fill:#000000; fill-opacity:1;stroke:#000000; stroke-opacity:1;
stroke-linecap:round; stroke-linejoin:round; "
 transform="translate(0 0) scale(1 1)">
</g>
<g style="fill:#C2C200; fill-opacity:0.0; 
stroke:#C2C200; stroke-width:-0.000393701; stroke-opacity:1; 
stroke-linecap:round; stroke-linejoin:round;">
</g>
<g style="fill:#C2C200; fill-opacity:0.0; 
stroke:#C2C200; stroke-width:118.11; stroke-opacity:1; 
stroke-linecap:round; stroke-linejoin:round;">
<path d="M19068 14076
L18730 14076
" />
<path d="M18899 14076
L18899 13486
L18843 13570
L18787 13626
L18730 13654
" />
<path d="M19433 13486
L19490 13486
L19546 13514
L19574 13542
L19602 13598
L19630 13711
L19630 13851
L19602 13964
L19574 14020
L19546 14048
L19490 14076
L19433 14076
L19377 14048
L19349 14020
L19321 13964
L19293 13851
L19293 13711
L19321 13598
L19349 13542
L19377 13514
L19433 13486
" />
<path d="M19855 13542
L19883 13514
L19940 13486
L20080 13486
L20136 13514
L20165 13542
L20193 13598
L20193 13654
L20165 13739
L19827 14076
L20193 14076
" />
<path d="M20474 14048
L20474 14076
L20446 14132
L20418 14161
" />
<path d="M20839 13486
L20896 13486
L20952 13514
L20980 13542
L21008 13598
L21036 13711
L21036 13851
L21008 13964
L20980 14020
L20952 14048
L20896 14076
L20839 14076
L20783 14048
L20755 14020
L20727 13964
L20699 13851
L20699 13711
L20727 13598
L20755 13542
L20783 13514
L20839 13486
" />
<path d="M21402 13486
L21458 13486
L21514 13514
L21543 13542
L21571 13598
L21599 13711
L21599 13851
L21571 13964
L21543 14020
L21514 14048
L21458 14076
L21402 14076
L21346 14048
L21318 14020
L21289 13964
L21261 13851
L21261 13711
L21289 13598
L21318 13542
L21346 13514
L21402 13486
" />
<path d="M21964 13486
L22021 13486
L22077 13514
L22105 13542
L22133 13598
L22161 13711
L22161 13851
L22133 13964
L22105 14020
L22077 14048
L22021 14076
L21964 14076
L21908 14048
L21880 14020
L21852 13964
L21824 13851
L21824 13711
L21852 13598
L21880 13542
L21908 13514
L21964 13486
" />
<path d="M22864 14076
L22864 13682
" />
<path d="M22864 13739
L22892 13711
L22949 13682
L23033 13682
L23089 13711
L23117 13767
L23117 14076
" />
<path d="M23117 13767
L23145 13711
L23202 13682
L23286 13682
L23342 13711
L23370 13767
L23370 14076
" />
<path d="M23652 14076
L23652 13682
" />
<path d="M23652 13739
L23680 13711
L23736 13682
L23820 13682
L23877 13711
L23905 13767
L23905 14076
" />
<path d="M23905 13767
L23933 13711
L23989 13682
L24073 13682
L24130 13711
L24158 13767
L24158 14076
" />
<path d="M1379 13278
L41537 13278
" />
<path d="M1379 10955
L1379 14341
" />
<path d="M41537 10955
L41537 14341
" />
<path d="M41537 13278
L41093 13508
" />
<path d="M41537 13278
L41093 13047
" />
<path d="M1379 13278
L1823 13508
" />
<path d="M1379 13278
L1823 13047
" />
</g>
<g style="fill:#C2C200; fill-opacity:0.0; 
stroke:#C2C200; stroke-width:59.0551; stroke-opacity:1; 
stroke-linecap:round; stroke-linejoin:round;">
<path d="M41537 10955
L1379 10955
" />
<path d="M1379 1348
L41537 1348
" />
</g>
<g style="fill:#C2C200; fill-opacity:0.0; 
stroke:#C2C200; stroke-width:118.11; stroke-opacity:1; 
stroke-linecap:round; stroke-linejoin:round;">
<path d="M44833 8598
L44805 8570
L44776 8514
L44776 8373
L44805 8317
L44833 8289
L44889 8261
L44945 8261
L45030 8289
L45367 8626
L45367 8261
" />
<path d="M44973 7754
L45367 7754
" />
<path d="M44748 7895
L45170 8036
L45170 7670
" />
<path d="M45339 7417
L45367 7417
L45423 7445
L45451 7473
" />
<path d="M44973 6911
L45367 6911
" />
<path d="M44748 7051
L45170 7192
L45170 6826
" />
<path d="M44776 6489
L44776 6433
L44805 6377
L44833 6348
L44889 6320
L45001 6292
L45142 6292
L45255 6320
L45311 6348
L45339 6377
L45367 6433
L45367 6489
L45339 6545
L45311 6573
L45255 6601
L45142 6630
L45001 6630
L44889 6601
L44833 6573
L44805 6545
L44776 6489
" />
<path d="M44776 5927
L44776 5870
L44805 5814
L44833 5786
L44889 5758
L45001 5730
L45142 5730
L45255 5758
L45311 5786
L45339 5814
L45367 5870
L45367 5927
L45339 5983
L45311 6011
L45255 6039
L45142 6067
L45001 6067
L44889 6039
L44833 6011
L44805 5983
L44776 5927
" />
<path d="M45367 5027
L44973 5027
" />
<path d="M45030 5027
L45001 4999
L44973 4942
L44973 4858
L45001 4802
L45058 4774
L45367 4774
" />
<path d="M45058 4774
L45001 4745
L44973 4689
L44973 4605
L45001 4549
L45058 4520
L45367 4520
" />
<path d="M45367 4239
L44973 4239
" />
<path d="M45030 4239
L45001 4211
L44973 4155
L44973 4071
L45001 4014
L45058 3986
L45367 3986
" />
<path d="M45058 3986
L45001 3958
L44973 3902
L44973 3817
L45001 3761
L45058 3733
L45367 3733
" />
<path d="M44568 10955
L44568 1348
" />
<path d="M41537 10955
L45631 10955
" />
<path d="M41537 1348
L45631 1348
" />
<path d="M44568 1348
L44799 1792
" />
<path d="M44568 1348
L44338 1792
" />
<path d="M44568 10955
L44799 10511
" />
<path d="M44568 10955
L44338 10511
" />
</g>
<g style="fill:#C2C200; fill-opacity:0.0; 
stroke:#C2C200; stroke-width:59.0551; stroke-opacity:1; 
stroke-linecap:round; stroke-linejoin:round;">
<path d="M1379 1348
L1379 10955
" />
<path d="M41537 10955
L41537 1348
" />
</g>
<g style="fill:#C2C200; fill-opacity:0.0; 
stroke:#C2C200; stroke-width:29.5276; stroke-opacity:1; 
stroke-linecap:round; stroke-linejoin:round;">
<path d="M31311 6602
L31217 6668
" />
<path d="M31311 6715
L31114 6715
L31114 6640
L31124 6621
L31133 6612
L31152 6602
L31180 6602
L31199 6612
L31208 6621
L31217 6640
L31217 6715
" />
<path d="M31311 6518
L31114 6518
L31311 6406
L31114 6406
" />
<path d="M31133 6321
L31124 6312
L31114 6293
L31114 6246
L31124 6227
L31133 6218
L31152 6209
L31170 6209
L31199 6218
L31311 6331
L31311 6209
" />
</g>
<g style="fill:#C2C200; fill-opacity:0.0; 
stroke:#C2C200; stroke-width:59.0551; stroke-opacity:1; 
stroke-linecap:round; stroke-linejoin:round;">
<path d="M25181 2828
L25163 2846
L25106 2865
L25069 2865
L25013 2846
L24975 2809
L24956 2771
L24938 2696
L24938 2640
L24956 2565
L24975 2528
L25013 2490
L25069 2471
L25106 2471
L25163 2490
L25181 2509
" />
<path d="M25331 2509
L25350 2490
L25388 2471
L25481 2471
L25519 2490
L25538 2509
L25556 2546
L25556 2584
L25538 2640
L25313 2865
L25556 2865
" />
<path d="M25781 2640
L25744 2621
L25725 2603
L25706 2565
L25706 2546
L25725 2509
L25744 2490
L25781 2471
L25856 2471
L25894 2490
L25913 2509
L25931 2546
L25931 2565
L25913 2603
L25894 2621
L25856 2640
L25781 2640
L25744 2659
L25725 2678
L25706 2715
L25706 2790
L25725 2828
L25744 2846
L25781 2865
L25856 2865
L25894 2846
L25913 2828
L25931 2790
L25931 2715
L25913 2678
L25894 2659
L25856 2640
" />
<path d="M37520 4908
L37539 4927
L37558 4983
L37558 5020
L37539 5077
L37501 5114
L37464 5133
L37389 5152
L37333 5152
L37258 5133
L37220 5114
L37183 5077
L37164 5020
L37164 4983
L37183 4927
L37201 4908
" />
<path d="M37558 4533
L37558 4758
" />
<path d="M37558 4645
L37164 4645
L37220 4683
L37258 4720
L37276 4758
" />
<path d="M37558 4345
L37558 4270
L37539 4233
L37520 4214
L37464 4177
L37389 4158
L37239 4158
L37201 4177
L37183 4195
L37164 4233
L37164 4308
L37183 4345
L37201 4364
L37239 4383
L37333 4383
L37370 4364
L37389 4345
L37408 4308
L37408 4233
L37389 4195
L37370 4177
L37333 4158
" />
<path d="M10226 5345
L10208 5364
L10151 5383
L10114 5383
L10058 5364
L10020 5327
L10001 5289
L9983 5214
L9983 5158
L10001 5083
L10020 5045
L10058 5008
L10114 4989
L10151 4989
L10208 5008
L10226 5027
" />
<path d="M10601 5383
L10376 5383
" />
<path d="M10489 5383
L10489 4989
L10451 5045
L10414 5083
L10376 5102
" />
<path d="M10733 4989
L10976 4989
L10845 5139
L10901 5139
L10939 5158
L10957 5177
L10976 5214
L10976 5308
L10957 5345
L10939 5364
L10901 5383
L10789 5383
L10751 5364
L10733 5345
" />
<path d="M38620 5958
L38639 5977
L38658 6033
L38658 6070
L38639 6127
L38601 6164
L38564 6183
L38489 6202
L38433 6202
L38358 6183
L38320 6164
L38283 6127
L38264 6070
L38264 6033
L38283 5977
L38301 5958
" />
<path d="M38301 5808
L38283 5789
L38264 5752
L38264 5658
L38283 5620
L38301 5602
L38339 5583
L38376 5583
L38433 5602
L38658 5827
L38658 5583
" />
<path d="M38264 5339
L38264 5302
L38283 5264
L38301 5245
L38339 5227
L38414 5208
L38508 5208
L38583 5227
L38620 5245
L38639 5264
L38658 5302
L38658 5339
L38639 5377
L38620 5395
L38583 5414
L38508 5433
L38414 5433
L38339 5414
L38301 5395
L38283 5377
L38264 5339
" />
<path d="M40364 6745
L40345 6764
L40289 6783
L40251 6783
L40195 6764
L40158 6727
L40139 6689
L40120 6614
L40120 6558
L40139 6483
L40158 6445
L40195 6408
L40251 6389
L40289 6389
L40345 6408
L40364 6427
" />
<path d="M40739 6783
L40514 6783
" />
<path d="M40626 6783
L40626 6389
L40589 6445
L40551 6483
L40514 6502
" />
<path d="M15070 5820
L15089 5839
L15108 5895
L15108 5933
L15089 5989
L15051 6027
L15014 6045
L14939 6064
L14883 6064
L14808 6045
L14770 6027
L14733 5989
L14714 5933
L14714 5895
L14733 5839
L14751 5820
" />
<path d="M14751 5670
L14733 5652
L14714 5614
L14714 5520
L14733 5483
L14751 5464
L14789 5445
L14826 5445
L14883 5464
L15108 5689
L15108 5445
" />
<path d="M14270 6920
L14289 6939
L14308 6995
L14308 7033
L14289 7089
L14251 7127
L14214 7145
L14139 7164
L14083 7164
L14008 7145
L13970 7127
L13933 7089
L13914 7033
L13914 6995
L13933 6939
L13951 6920
" />
<path d="M13914 6789
L13914 6545
L14064 6677
L14064 6620
L14083 6583
L14101 6564
L14139 6545
L14233 6545
L14270 6564
L14289 6583
L14308 6620
L14308 6733
L14289 6770
L14270 6789
" />
<path d="M38320 8570
L38339 8589
L38358 8645
L38358 8683
L38339 8739
L38301 8777
L38264 8795
L38189 8814
L38133 8814
L38058 8795
L38020 8777
L37983 8739
L37964 8683
L37964 8645
L37983 8589
L38001 8570
" />
<path d="M38095 8233
L38358 8233
" />
<path d="M37945 8327
L38226 8420
L38226 8177
" />
<path d="M14270 4970
L14289 4989
L14308 5045
L14308 5083
L14289 5139
L14251 5177
L14214 5195
L14139 5214
L14083 5214
L14008 5195
L13970 5177
L13933 5139
L13914 5083
L13914 5045
L13933 4989
L13951 4970
" />
<path d="M13914 4614
L13914 4802
L14101 4820
L14083 4802
L14064 4764
L14064 4670
L14083 4633
L14101 4614
L14139 4595
L14233 4595
L14270 4614
L14289 4633
L14308 4670
L14308 4764
L14289 4802
L14270 4820
" />
<path d="M41470 8620
L41489 8639
L41508 8695
L41508 8733
L41489 8789
L41451 8827
L41414 8845
L41339 8864
L41283 8864
L41208 8845
L41170 8827
L41133 8789
L41114 8733
L41114 8695
L41133 8639
L41151 8620
" />
<path d="M41114 8283
L41114 8358
L41133 8395
L41151 8414
L41208 8452
L41283 8470
L41433 8470
L41470 8452
L41489 8433
L41508 8395
L41508 8320
L41489 8283
L41470 8264
L41433 8245
L41339 8245
L41301 8264
L41283 8283
L41264 8320
L41264 8395
L41283 8433
L41301 8452
L41339 8470
" />
<path d="M33864 9545
L33845 9564
L33789 9583
L33751 9583
L33695 9564
L33658 9527
L33639 9489
L33620 9414
L33620 9358
L33639 9283
L33658 9245
L33695 9208
L33751 9189
L33789 9189
L33845 9208
L33864 9227
" />
<path d="M33995 9189
L34258 9189
L34089 9583
" />
<path d="M11220 4570
L11239 4589
L11258 4645
L11258 4683
L11239 4739
L11201 4777
L11164 4795
L11089 4814
L11033 4814
L10958 4795
L10920 4777
L10883 4739
L10864 4683
L10864 4645
L10883 4589
L10901 4570
" />
<path d="M11033 4345
L11014 4383
L10995 4402
L10958 4420
L10939 4420
L10901 4402
L10883 4383
L10864 4345
L10864 4270
L10883 4233
L10901 4214
L10939 4195
L10958 4195
L10995 4214
L11014 4233
L11033 4270
L11033 4345
L11051 4383
L11070 4402
L11108 4420
L11183 4420
L11220 4402
L11239 4383
L11258 4345
L11258 4270
L11239 4233
L11220 4214
L11183 4195
L11108 4195
L11070 4214
L11051 4233
L11033 4270
" />
<path d="M10214 4795
L10195 4814
L10139 4833
L10101 4833
L10045 4814
L10008 4777
L9989 4739
L9970 4664
L9970 4608
L9989 4533
L10008 4495
L10045 4458
L10101 4439
L10139 4439
L10195 4458
L10214 4477
" />
<path d="M10401 4833
L10476 4833
L10514 4814
L10533 4795
L10570 4739
L10589 4664
L10589 4514
L10570 4477
L10551 4458
L10514 4439
L10439 4439
L10401 4458
L10383 4477
L10364 4514
L10364 4608
L10383 4645
L10401 4664
L10439 4683
L10514 4683
L10551 4664
L10570 4645
L10589 4608
" />
<path d="M11170 6608
L11189 6627
L11208 6683
L11208 6720
L11189 6777
L11151 6814
L11114 6833
L11039 6852
L10983 6852
L10908 6833
L10870 6814
L10833 6777
L10814 6720
L10814 6683
L10833 6627
L10851 6608
" />
<path d="M11208 6233
L11208 6458
" />
<path d="M11208 6345
L10814 6345
L10870 6383
L10908 6420
L10926 6458
" />
<path d="M10814 5989
L10814 5952
L10833 5914
L10851 5895
L10889 5877
L10964 5858
L11058 5858
L11133 5877
L11170 5895
L11189 5914
L11208 5952
L11208 5989
L11189 6027
L11170 6045
L11133 6064
L11058 6083
L10964 6083
L10889 6064
L10851 6045
L10833 6027
L10814 5989
" />
<path d="M10226 7545
L10208 7564
L10151 7583
L10114 7583
L10058 7564
L10020 7527
L10001 7489
L9983 7414
L9983 7358
L10001 7283
L10020 7245
L10058 7208
L10114 7189
L10151 7189
L10208 7208
L10226 7227
" />
<path d="M10601 7583
L10376 7583
" />
<path d="M10489 7583
L10489 7189
L10451 7245
L10414 7283
L10376 7302
" />
<path d="M10976 7583
L10751 7583
" />
<path d="M10864 7583
L10864 7189
L10826 7245
L10789 7283
L10751 7302
" />
<path d="M9620 4608
L9639 4627
L9658 4683
L9658 4720
L9639 4777
L9601 4814
L9564 4833
L9489 4852
L9433 4852
L9358 4833
L9320 4814
L9283 4777
L9264 4720
L9264 4683
L9283 4627
L9301 4608
" />
<path d="M9658 4233
L9658 4458
" />
<path d="M9658 4345
L9264 4345
L9320 4383
L9358 4420
L9376 4458
" />
<path d="M9301 4083
L9283 4064
L9264 4027
L9264 3933
L9283 3895
L9301 3877
L9339 3858
L9376 3858
L9433 3877
L9658 4102
L9658 3858
" />
<path d="M35620 6908
L35639 6927
L35658 6983
L35658 7020
L35639 7077
L35601 7114
L35564 7133
L35489 7152
L35433 7152
L35358 7133
L35320 7114
L35283 7077
L35264 7020
L35264 6983
L35283 6927
L35301 6908
" />
<path d="M35658 6533
L35658 6758
" />
<path d="M35658 6645
L35264 6645
L35320 6683
L35358 6720
L35376 6758
" />
<path d="M35395 6195
L35658 6195
" />
<path d="M35245 6289
L35526 6383
L35526 6139
" />
<path d="M36320 7108
L36339 7127
L36358 7183
L36358 7220
L36339 7277
L36301 7314
L36264 7333
L36189 7352
L36133 7352
L36058 7333
L36020 7314
L35983 7277
L35964 7220
L35964 7183
L35983 7127
L36001 7108
" />
<path d="M36358 6733
L36358 6958
" />
<path d="M36358 6845
L35964 6845
L36020 6883
L36058 6920
L36076 6958
" />
<path d="M35964 6377
L35964 6564
L36151 6583
L36133 6564
L36114 6527
L36114 6433
L36133 6395
L36151 6377
L36189 6358
L36283 6358
L36320 6377
L36339 6395
L36358 6433
L36358 6527
L36339 6564
L36320 6583
" />
<path d="M37070 7108
L37089 7127
L37108 7183
L37108 7220
L37089 7277
L37051 7314
L37014 7333
L36939 7352
L36883 7352
L36808 7333
L36770 7314
L36733 7277
L36714 7220
L36714 7183
L36733 7127
L36751 7108
" />
<path d="M37108 6733
L37108 6958
" />
<path d="M37108 6845
L36714 6845
L36770 6883
L36808 6920
L36826 6958
" />
<path d="M36714 6395
L36714 6470
L36733 6508
L36751 6527
L36808 6564
L36883 6583
L37033 6583
L37070 6564
L37089 6545
L37108 6508
L37108 6433
L37089 6395
L37070 6377
L37033 6358
L36939 6358
L36901 6377
L36883 6395
L36864 6433
L36864 6508
L36883 6545
L36901 6564
L36939 6583
" />
<path d="M30770 3608
L30789 3627
L30808 3683
L30808 3720
L30789 3777
L30751 3814
L30714 3833
L30639 3852
L30583 3852
L30508 3833
L30470 3814
L30433 3777
L30414 3720
L30414 3683
L30433 3627
L30451 3608
" />
<path d="M30808 3233
L30808 3458
" />
<path d="M30808 3345
L30414 3345
L30470 3383
L30508 3420
L30526 3458
" />
<path d="M30414 3102
L30414 2839
L30808 3008
" />
<path d="M32776 1845
L32758 1864
L32701 1883
L32664 1883
L32608 1864
L32570 1827
L32551 1789
L32533 1714
L32533 1658
L32551 1583
L32570 1545
L32608 1508
L32664 1489
L32701 1489
L32758 1508
L32776 1527
" />
<path d="M32926 1527
L32945 1508
L32983 1489
L33076 1489
L33114 1508
L33133 1527
L33151 1564
L33151 1602
L33133 1658
L32908 1883
L33151 1883
" />
<path d="M33526 1883
L33301 1883
" />
<path d="M33414 1883
L33414 1489
L33376 1545
L33339 1583
L33301 1602
" />
<path d="M31520 5158
L31539 5177
L31558 5233
L31558 5270
L31539 5327
L31501 5364
L31464 5383
L31389 5402
L31333 5402
L31258 5383
L31220 5364
L31183 5327
L31164 5270
L31164 5233
L31183 5177
L31201 5158
" />
<path d="M31201 5008
L31183 4989
L31164 4952
L31164 4858
L31183 4820
L31201 4802
L31239 4783
L31276 4783
L31333 4802
L31558 5027
L31558 4783
" />
<path d="M31201 4633
L31183 4614
L31164 4577
L31164 4483
L31183 4445
L31201 4427
L31239 4408
L31276 4408
L31333 4427
L31558 4652
L31558 4408
" />
<path d="M32870 6408
L32889 6427
L32908 6483
L32908 6520
L32889 6577
L32851 6614
L32814 6633
L32739 6652
L32683 6652
L32608 6633
L32570 6614
L32533 6577
L32514 6520
L32514 6483
L32533 6427
L32551 6408
" />
<path d="M32551 6258
L32533 6239
L32514 6202
L32514 6108
L32533 6070
L32551 6052
L32589 6033
L32626 6033
L32683 6052
L32908 6277
L32908 6033
" />
<path d="M32645 5695
L32908 5695
" />
<path d="M32495 5789
L32776 5883
L32776 5639
" />
<path d="M22426 2845
L22408 2864
L22351 2883
L22314 2883
L22258 2864
L22220 2827
L22201 2789
L22183 2714
L22183 2658
L22201 2583
L22220 2545
L22258 2508
L22314 2489
L22351 2489
L22408 2508
L22426 2527
" />
<path d="M22576 2527
L22595 2508
L22633 2489
L22726 2489
L22764 2508
L22783 2527
L22801 2564
L22801 2602
L22783 2658
L22558 2883
L22801 2883
" />
<path d="M23157 2489
L22970 2489
L22951 2677
L22970 2658
L23008 2639
L23101 2639
L23139 2658
L23157 2677
L23176 2714
L23176 2808
L23157 2845
L23139 2864
L23101 2883
L23008 2883
L22970 2864
L22951 2845
" />
<path d="M21226 2845
L21208 2864
L21151 2883
L21114 2883
L21058 2864
L21020 2827
L21001 2789
L20983 2714
L20983 2658
L21001 2583
L21020 2545
L21058 2508
L21114 2489
L21151 2489
L21208 2508
L21226 2527
" />
<path d="M21376 2527
L21395 2508
L21433 2489
L21526 2489
L21564 2508
L21583 2527
L21601 2564
L21601 2602
L21583 2658
L21358 2883
L21601 2883
" />
<path d="M21939 2489
L21864 2489
L21826 2508
L21808 2527
L21770 2583
L21751 2658
L21751 2808
L21770 2845
L21789 2864
L21826 2883
L21901 2883
L21939 2864
L21957 2845
L21976 2808
L21976 2714
L21957 2677
L21939 2658
L21901 2639
L21826 2639
L21789 2658
L21770 2677
L21751 2714
" />
<path d="M26526 2795
L26508 2814
L26451 2833
L26414 2833
L26358 2814
L26320 2777
L26301 2739
L26283 2664
L26283 2608
L26301 2533
L26320 2495
L26358 2458
L26414 2439
L26451 2439
L26508 2458
L26526 2477
" />
<path d="M26676 2477
L26695 2458
L26733 2439
L26826 2439
L26864 2458
L26883 2477
L26901 2514
L26901 2552
L26883 2608
L26658 2833
L26901 2833
" />
<path d="M27033 2439
L27295 2439
L27126 2833
" />
<path d="M18576 2945
L18558 2964
L18501 2983
L18464 2983
L18408 2964
L18370 2927
L18351 2889
L18333 2814
L18333 2758
L18351 2683
L18370 2645
L18408 2608
L18464 2589
L18501 2589
L18558 2608
L18576 2627
" />
<path d="M18726 2627
L18745 2608
L18783 2589
L18876 2589
L18914 2608
L18933 2627
L18951 2664
L18951 2702
L18933 2758
L18708 2983
L18951 2983
" />
<path d="M19139 2983
L19214 2983
L19251 2964
L19270 2945
L19307 2889
L19326 2814
L19326 2664
L19307 2627
L19289 2608
L19251 2589
L19176 2589
L19139 2608
L19120 2627
L19101 2664
L19101 2758
L19120 2795
L19139 2814
L19176 2833
L19251 2833
L19289 2814
L19307 2795
L19326 2758
" />
<path d="M17326 2945
L17308 2964
L17251 2983
L17214 2983
L17158 2964
L17120 2927
L17101 2889
L17083 2814
L17083 2758
L17101 2683
L17120 2645
L17158 2608
L17214 2589
L17251 2589
L17308 2608
L17326 2627
" />
<path d="M17458 2589
L17701 2589
L17570 2739
L17626 2739
L17664 2758
L17683 2777
L17701 2814
L17701 2908
L17683 2945
L17664 2964
L17626 2983
L17514 2983
L17476 2964
L17458 2945
" />
<path d="M17945 2589
L17982 2589
L18020 2608
L18039 2627
L18057 2664
L18076 2739
L18076 2833
L18057 2908
L18039 2945
L18020 2964
L17982 2983
L17945 2983
L17908 2964
L17889 2945
L17870 2908
L17851 2833
L17851 2739
L17870 2664
L17889 2627
L17908 2608
L17945 2589
" />
</g>
<g style="fill:#C2C200; fill-opacity:0.0; 
stroke:#C2C200; stroke-width:29.5276; stroke-opacity:1; 
stroke-linecap:round; stroke-linejoin:round;">
<path d="M38752 3974
L38555 3974
L38555 3927
L38564 3899
L38583 3880
L38602 3871
L38639 3862
L38668 3862
L38705 3871
L38724 3880
L38743 3899
L38752 3927
L38752 3974
" />
<path d="M38555 3796
L38555 3665
L38752 3749
" />
</g>
<g style="fill:#C2C200; fill-opacity:0.0; 
stroke:#C2C200; stroke-width:59.0551; stroke-opacity:1; 
stroke-linecap:round; stroke-linejoin:round;">
<path d="M10348 9689
L10348 9970
L10329 10027
L10292 10064
L10236 10083
L10198 10083
" />
<path d="M10517 9727
L10536 9708
L10573 9689
L10667 9689
L10704 9708
L10723 9727
L10742 9764
L10742 9802
L10723 9858
L10498 10083
L10742 10083
" />
<path d="M6614 6483
L6426 6483
L6426 6089
" />
<path d="M6726 6127
L6745 6108
L6783 6089
L6876 6089
L6914 6108
L6933 6127
L6951 6164
L6951 6202
L6933 6258
L6708 6483
L6951 6483
" />
<path d="M29742 5520
L29704 5502
L29667 5464
L29611 5408
L29573 5389
L29536 5389
" />
<path d="M29554 5483
L29517 5464
L29479 5427
L29461 5352
L29461 5220
L29479 5145
L29517 5108
L29554 5089
L29629 5089
L29667 5108
L29704 5145
L29723 5220
L29723 5352
L29704 5427
L29667 5464
L29629 5483
L29554 5483
" />
<path d="M29873 5127
L29892 5108
L29929 5089
L30023 5089
L30061 5108
L30079 5127
L30098 5164
L30098 5202
L30079 5258
L29854 5483
L30098 5483
" />
<path d="M29742 4020
L29704 4002
L29667 3964
L29611 3908
L29573 3889
L29536 3889
" />
<path d="M29554 3983
L29517 3964
L29479 3927
L29461 3852
L29461 3720
L29479 3645
L29517 3608
L29554 3589
L29629 3589
L29667 3608
L29704 3645
L29723 3720
L29723 3852
L29704 3927
L29667 3964
L29629 3983
L29554 3983
" />
<path d="M29854 3589
L30098 3589
L29967 3739
L30023 3739
L30061 3758
L30079 3777
L30098 3814
L30098 3908
L30079 3945
L30061 3964
L30023 3983
L29911 3983
L29873 3964
L29854 3945
" />
<path d="M14792 5070
L14754 5052
L14717 5014
L14661 4958
L14623 4939
L14586 4939
" />
<path d="M14604 5033
L14567 5014
L14529 4977
L14511 4902
L14511 4770
L14529 4695
L14567 4658
L14604 4639
L14679 4639
L14717 4658
L14754 4695
L14773 4770
L14773 4902
L14754 4977
L14717 5014
L14679 5033
L14604 5033
" />
<path d="M15129 4639
L14942 4639
L14923 4827
L14942 4808
L14979 4789
L15073 4789
L15111 4808
L15129 4827
L15148 4864
L15148 4958
L15129 4995
L15111 5014
L15073 5033
L14979 5033
L14942 5014
L14923 4995
" />
<path d="M14792 7520
L14754 7502
L14717 7464
L14661 7408
L14623 7389
L14586 7389
" />
<path d="M14604 7483
L14567 7464
L14529 7427
L14511 7352
L14511 7220
L14529 7145
L14567 7108
L14604 7089
L14679 7089
L14717 7108
L14754 7145
L14773 7220
L14773 7352
L14754 7427
L14717 7464
L14679 7483
L14604 7483
" />
<path d="M15111 7089
L15036 7089
L14998 7108
L14979 7127
L14942 7183
L14923 7258
L14923 7408
L14942 7445
L14961 7464
L14998 7483
L15073 7483
L15111 7464
L15129 7445
L15148 7408
L15148 7314
L15129 7277
L15111 7258
L15073 7239
L14998 7239
L14961 7258
L14942 7277
L14923 7314
" />
<path d="M14792 8570
L14754 8552
L14717 8514
L14661 8458
L14623 8439
L14586 8439
" />
<path d="M14604 8533
L14567 8514
L14529 8477
L14511 8402
L14511 8270
L14529 8195
L14567 8158
L14604 8139
L14679 8139
L14717 8158
L14754 8195
L14773 8270
L14773 8402
L14754 8477
L14717 8514
L14679 8533
L14604 8533
" />
<path d="M14998 8308
L14961 8289
L14942 8270
L14923 8233
L14923 8214
L14942 8177
L14961 8158
L14998 8139
L15073 8139
L15111 8158
L15129 8177
L15148 8214
L15148 8233
L15129 8270
L15111 8289
L15073 8308
L14998 8308
L14961 8327
L14942 8345
L14923 8383
L14923 8458
L14942 8495
L14961 8514
L14998 8533
L15073 8533
L15111 8514
L15129 8495
L15148 8458
L15148 8383
L15129 8345
L15111 8327
L15073 8308
" />
<path d="M29742 7120
L29704 7102
L29667 7064
L29611 7008
L29573 6989
L29536 6989
" />
<path d="M29554 7083
L29517 7064
L29479 7027
L29461 6952
L29461 6820
L29479 6745
L29517 6708
L29554 6689
L29629 6689
L29667 6708
L29704 6745
L29723 6820
L29723 6952
L29704 7027
L29667 7064
L29629 7083
L29554 7083
" />
<path d="M29911 7083
L29986 7083
L30023 7064
L30042 7045
L30079 6989
L30098 6914
L30098 6764
L30079 6727
L30061 6708
L30023 6689
L29948 6689
L29911 6708
L29892 6727
L29873 6764
L29873 6858
L29892 6895
L29911 6914
L29948 6933
L30023 6933
L30061 6914
L30079 6895
L30098 6858
" />
<path d="M30854 8920
L30817 8902
L30779 8864
L30723 8808
L30686 8789
L30648 8789
" />
<path d="M30667 8883
L30629 8864
L30592 8827
L30573 8752
L30573 8620
L30592 8545
L30629 8508
L30667 8489
L30742 8489
L30779 8508
L30817 8545
L30836 8620
L30836 8752
L30817 8827
L30779 8864
L30742 8883
L30667 8883
" />
<path d="M31211 8883
L30986 8883
" />
<path d="M31098 8883
L31098 8489
L31061 8545
L31023 8583
L30986 8602
" />
<path d="M31454 8489
L31492 8489
L31529 8508
L31548 8527
L31567 8564
L31586 8639
L31586 8733
L31567 8808
L31548 8845
L31529 8864
L31492 8883
L31454 8883
L31417 8864
L31398 8845
L31379 8808
L31361 8733
L31361 8639
L31379 8564
L31398 8527
L31417 8508
L31454 8489
" />
<path d="M14354 4020
L14317 4002
L14279 3964
L14223 3908
L14186 3889
L14148 3889
" />
<path d="M14167 3983
L14129 3964
L14092 3927
L14073 3852
L14073 3720
L14092 3645
L14129 3608
L14167 3589
L14242 3589
L14279 3608
L14317 3645
L14336 3720
L14336 3852
L14317 3927
L14279 3964
L14242 3983
L14167 3983
" />
<path d="M14711 3983
L14486 3983
" />
<path d="M14598 3983
L14598 3589
L14561 3645
L14523 3683
L14486 3702
" />
<path d="M14861 3627
L14879 3608
L14917 3589
L15011 3589
L15048 3608
L15067 3627
L15086 3664
L15086 3702
L15067 3758
L14842 3983
L15086 3983
" />
<path d="M37908 6970
L37720 7102
" />
<path d="M37908 7195
L37514 7195
L37514 7045
L37533 7008
L37551 6989
L37589 6970
L37645 6970
L37683 6989
L37701 7008
L37720 7045
L37720 7195
" />
<path d="M37908 6595
L37908 6820
" />
<path d="M37908 6708
L37514 6708
L37570 6745
L37608 6783
L37626 6820
" />
<path d="M38958 11470
L38770 11602
" />
<path d="M38958 11695
L38564 11695
L38564 11545
L38583 11508
L38601 11489
L38639 11470
L38695 11470
L38733 11489
L38751 11508
L38770 11545
L38770 11695
" />
<path d="M38601 11320
L38583 11302
L38564 11264
L38564 11170
L38583 11133
L38601 11114
L38639 11095
L38676 11095
L38733 11114
L38958 11339
L38958 11095
" />
<path d="M39414 7433
L39283 7245
" />
<path d="M39189 7433
L39189 7039
L39339 7039
L39376 7058
L39395 7077
L39414 7114
L39414 7170
L39395 7208
L39376 7227
L39339 7245
L39189 7245
" />
<path d="M39545 7039
L39789 7039
L39658 7189
L39714 7189
L39751 7208
L39770 7227
L39789 7264
L39789 7358
L39770 7395
L39751 7414
L39714 7433
L39601 7433
L39564 7414
L39545 7395
" />
<path d="M41864 7733
L41733 7545
" />
<path d="M41639 7733
L41639 7339
L41789 7339
L41826 7358
L41845 7377
L41864 7414
L41864 7470
L41845 7508
L41826 7527
L41789 7545
L41639 7545
" />
<path d="M42201 7470
L42201 7733
" />
<path d="M42108 7320
L42014 7602
L42258 7602
" />
<path d="M38764 7533
L38633 7345
" />
<path d="M38539 7533
L38539 7139
L38689 7139
L38726 7158
L38745 7177
L38764 7214
L38764 7270
L38745 7308
L38726 7327
L38689 7345
L38539 7345
" />
<path d="M39120 7139
L38933 7139
L38914 7327
L38933 7308
L38970 7289
L39064 7289
L39101 7308
L39120 7327
L39139 7364
L39139 7458
L39120 7495
L39101 7514
L39064 7533
L38970 7533
L38933 7514
L38914 7495
" />
<path d="M37514 7783
L37383 7595
" />
<path d="M37289 7783
L37289 7389
L37439 7389
L37476 7408
L37495 7427
L37514 7464
L37514 7520
L37495 7558
L37476 7577
L37439 7595
L37289 7595
" />
<path d="M37851 7389
L37776 7389
L37739 7408
L37720 7427
L37683 7483
L37664 7558
L37664 7708
L37683 7745
L37701 7764
L37739 7783
L37814 7783
L37851 7764
L37870 7745
L37889 7708
L37889 7614
L37870 7577
L37851 7558
L37814 7539
L37739 7539
L37701 7558
L37683 7577
L37664 7614
" />
<path d="M41158 11770
L40970 11902
" />
<path d="M41158 11995
L40764 11995
L40764 11845
L40783 11808
L40801 11789
L40839 11770
L40895 11770
L40933 11789
L40951 11808
L40970 11845
L40970 11995
" />
<path d="M40764 11639
L40764 11377
L41158 11545
" />
<path d="M39864 11983
L39733 11795
" />
<path d="M39639 11983
L39639 11589
L39789 11589
L39826 11608
L39845 11627
L39864 11664
L39864 11720
L39845 11758
L39826 11777
L39789 11795
L39639 11795
" />
<path d="M40089 11758
L40051 11739
L40033 11720
L40014 11683
L40014 11664
L40033 11627
L40051 11608
L40089 11589
L40164 11589
L40201 11608
L40220 11627
L40239 11664
L40239 11683
L40220 11720
L40201 11739
L40164 11758
L40089 11758
L40051 11777
L40033 11795
L40014 11833
L40014 11908
L40033 11945
L40051 11964
L40089 11983
L40164 11983
L40201 11964
L40220 11945
L40239 11908
L40239 11833
L40220 11795
L40201 11777
L40164 11758
" />
<path d="M39558 11470
L39370 11602
" />
<path d="M39558 11695
L39164 11695
L39164 11545
L39183 11508
L39201 11489
L39239 11470
L39295 11470
L39333 11489
L39351 11508
L39370 11545
L39370 11695
" />
<path d="M39558 11283
L39558 11208
L39539 11170
L39520 11152
L39464 11114
L39389 11095
L39239 11095
L39201 11114
L39183 11133
L39164 11170
L39164 11245
L39183 11283
L39201 11302
L39239 11320
L39333 11320
L39370 11302
L39389 11283
L39408 11245
L39408 11170
L39389 11133
L39370 11114
L39333 11095
" />
<path d="M39876 11433
L39745 11245
" />
<path d="M39651 11433
L39651 11039
L39801 11039
L39839 11058
L39858 11077
L39876 11114
L39876 11170
L39858 11208
L39839 11227
L39801 11245
L39651 11245
" />
<path d="M40251 11433
L40026 11433
" />
<path d="M40139 11433
L40139 11039
L40101 11095
L40064 11133
L40026 11152
" />
<path d="M40495 11039
L40532 11039
L40570 11058
L40589 11077
L40607 11114
L40626 11189
L40626 11283
L40607 11358
L40589 11395
L40570 11414
L40532 11433
L40495 11433
L40458 11414
L40439 11395
L40420 11358
L40401 11283
L40401 11189
L40420 11114
L40439 11077
L40458 11058
L40495 11039
" />
<path d="M10758 4058
L10570 4189
" />
<path d="M10758 4283
L10364 4283
L10364 4133
L10383 4095
L10401 4077
L10439 4058
L10495 4058
L10533 4077
L10551 4095
L10570 4133
L10570 4283
" />
<path d="M10758 3683
L10758 3908
" />
<path d="M10758 3795
L10364 3795
L10420 3833
L10458 3870
L10476 3908
" />
<path d="M10758 3308
L10758 3533
" />
<path d="M10758 3420
L10364 3420
L10420 3458
L10458 3495
L10476 3533
" />
<path d="M10208 4058
L10020 4189
" />
<path d="M10208 4283
L9814 4283
L9814 4133
L9833 4095
L9851 4077
L9889 4058
L9945 4058
L9983 4077
L10001 4095
L10020 4133
L10020 4283
" />
<path d="M10208 3683
L10208 3908
" />
<path d="M10208 3795
L9814 3795
L9870 3833
L9908 3870
L9926 3908
" />
<path d="M9851 3533
L9833 3514
L9814 3477
L9814 3383
L9833 3345
L9851 3327
L9889 3308
L9926 3308
L9983 3327
L10208 3552
L10208 3308
" />
<path d="M9126 6183
L8995 5995
" />
<path d="M8901 6183
L8901 5789
L9051 5789
L9089 5808
L9108 5827
L9126 5864
L9126 5920
L9108 5958
L9089 5977
L9051 5995
L8901 5995
" />
<path d="M9501 6183
L9276 6183
" />
<path d="M9389 6183
L9389 5789
L9351 5845
L9314 5883
L9276 5902
" />
<path d="M9633 5789
L9876 5789
L9745 5939
L9801 5939
L9839 5958
L9857 5977
L9876 6014
L9876 6108
L9857 6145
L9839 6164
L9801 6183
L9689 6183
L9651 6164
L9633 6145
" />
<path d="M9126 6733
L8995 6545
" />
<path d="M8901 6733
L8901 6339
L9051 6339
L9089 6358
L9108 6377
L9126 6414
L9126 6470
L9108 6508
L9089 6527
L9051 6545
L8901 6545
" />
<path d="M9501 6733
L9276 6733
" />
<path d="M9389 6733
L9389 6339
L9351 6395
L9314 6433
L9276 6452
" />
<path d="M9839 6470
L9839 6733
" />
<path d="M9745 6320
L9651 6602
L9895 6602
" />
</g>
<g style="fill:#C2C200; fill-opacity:0.0; 
stroke:#C2C200; stroke-width:29.5276; stroke-opacity:1; 
stroke-linecap:round; stroke-linejoin:round;">
<path d="M12818 2881
L12725 2947
" />
<path d="M12818 2994
L12622 2994
L12622 2919
L12631 2900
L12640 2891
L12659 2881
L12687 2881
L12706 2891
L12715 2900
L12725 2919
L12725 2994
" />
<path d="M12818 2694
L12818 2806
" />
<path d="M12818 2750
L12622 2750
L12650 2769
L12668 2788
L12678 2806
" />
<path d="M12622 2525
L12622 2563
L12631 2581
L12640 2591
L12668 2609
L12706 2619
L12781 2619
L12800 2609
L12809 2600
L12818 2581
L12818 2544
L12809 2525
L12800 2516
L12781 2506
L12734 2506
L12715 2516
L12706 2525
L12697 2544
L12697 2581
L12706 2600
L12715 2609
L12734 2619
" />
<path d="M12168 2881
L12075 2947
" />
<path d="M12168 2994
L11972 2994
L11972 2919
L11981 2900
L11990 2891
L12009 2881
L12037 2881
L12056 2891
L12065 2900
L12075 2919
L12075 2994
" />
<path d="M12168 2694
L12168 2806
" />
<path d="M12168 2750
L11972 2750
L12000 2769
L12018 2788
L12028 2806
" />
<path d="M11972 2628
L11972 2497
L12168 2581
" />
</g>
<g style="fill:#C2C200; fill-opacity:0.0; 
stroke:#C2C200; stroke-width:59.0551; stroke-opacity:1; 
stroke-linecap:round; stroke-linejoin:round;">
<path d="M35108 6908
L34920 7039
" />
<path d="M35108 7133
L34714 7133
L34714 6983
L34733 6945
L34751 6927
L34789 6908
L34845 6908
L34883 6927
L34901 6945
L34920 6983
L34920 7133
" />
<path d="M35108 6533
L35108 6758
" />
<path d="M35108 6645
L34714 6645
L34770 6683
L34808 6720
L34826 6758
" />
<path d="M34883 6308
L34864 6345
L34845 6364
L34808 6383
L34789 6383
L34751 6364
L34733 6345
L34714 6308
L34714 6233
L34733 6195
L34751 6177
L34789 6158
L34808 6158
L34845 6177
L34864 6195
L34883 6233
L34883 6308
L34901 6345
L34920 6364
L34958 6383
L35033 6383
L35070 6364
L35089 6345
L35108 6308
L35108 6233
L35089 6195
L35070 6177
L35033 6158
L34958 6158
L34920 6177
L34901 6195
L34883 6233
" />
<path d="M36326 3983
L36195 3795
" />
<path d="M36101 3983
L36101 3589
L36251 3589
L36289 3608
L36308 3627
L36326 3664
L36326 3720
L36308 3758
L36289 3777
L36251 3795
L36101 3795
" />
<path d="M36701 3983
L36476 3983
" />
<path d="M36589 3983
L36589 3589
L36551 3645
L36514 3683
L36476 3702
" />
<path d="M36889 3983
L36964 3983
L37001 3964
L37020 3945
L37057 3889
L37076 3814
L37076 3664
L37057 3627
L37039 3608
L37001 3589
L36926 3589
L36889 3608
L36870 3627
L36851 3664
L36851 3758
L36870 3795
L36889 3814
L36926 3833
L37001 3833
L37039 3814
L37057 3795
L37076 3758
" />
<path d="M36326 3483
L36195 3295
" />
<path d="M36101 3483
L36101 3089
L36251 3089
L36289 3108
L36308 3127
L36326 3164
L36326 3220
L36308 3258
L36289 3277
L36251 3295
L36101 3295
" />
<path d="M36476 3127
L36495 3108
L36533 3089
L36626 3089
L36664 3108
L36683 3127
L36701 3164
L36701 3202
L36683 3258
L36458 3483
L36701 3483
" />
<path d="M36945 3089
L36982 3089
L37020 3108
L37039 3127
L37057 3164
L37076 3239
L37076 3333
L37057 3408
L37039 3445
L37020 3464
L36982 3483
L36945 3483
L36908 3464
L36889 3445
L36870 3408
L36851 3333
L36851 3239
L36870 3164
L36889 3127
L36908 3108
L36945 3089
" />
<path d="M30708 4908
L30520 5039
" />
<path d="M30708 5133
L30314 5133
L30314 4983
L30333 4945
L30351 4927
L30389 4908
L30445 4908
L30483 4927
L30501 4945
L30520 4983
L30520 5133
" />
<path d="M30351 4758
L30333 4739
L30314 4702
L30314 4608
L30333 4570
L30351 4552
L30389 4533
L30426 4533
L30483 4552
L30708 4777
L30708 4533
" />
<path d="M30708 4158
L30708 4383
" />
<path d="M30708 4270
L30314 4270
L30370 4308
L30408 4345
L30426 4383
" />
<path d="M14226 9983
L14095 9795
" />
<path d="M14001 9983
L14001 9589
L14151 9589
L14189 9608
L14208 9627
L14226 9664
L14226 9720
L14208 9758
L14189 9777
L14151 9795
L14001 9795
" />
<path d="M14376 9627
L14395 9608
L14433 9589
L14526 9589
L14564 9608
L14583 9627
L14601 9664
L14601 9702
L14583 9758
L14358 9983
L14601 9983
" />
<path d="M14751 9627
L14770 9608
L14808 9589
L14901 9589
L14939 9608
L14957 9627
L14976 9664
L14976 9702
L14957 9758
L14733 9983
L14976 9983
" />
</g>
<g style="fill:#C2C200; fill-opacity:0.0; 
stroke:#C2C200; stroke-width:29.5276; stroke-opacity:1; 
stroke-linecap:round; stroke-linejoin:round;">
<path d="M15810 9863
L15745 9769
" />
<path d="M15698 9863
L15698 9666
L15773 9666
L15792 9675
L15801 9685
L15810 9703
L15810 9731
L15801 9750
L15792 9760
L15773 9769
L15698 9769
" />
<path d="M15895 9863
L15895 9666
L16007 9863
L16007 9666
" />
<path d="M16204 9863
L16092 9863
" />
<path d="M16148 9863
L16148 9666
L16129 9694
L16110 9713
L16092 9722
" />
<path d="M29629 9863
L29564 9769
" />
<path d="M29517 9863
L29517 9666
L29592 9666
L29611 9675
L29620 9685
L29629 9703
L29629 9731
L29620 9750
L29611 9760
L29592 9769
L29517 9769
" />
<path d="M29714 9863
L29714 9666
L29826 9863
L29826 9666
" />
<path d="M29901 9666
L30023 9666
L29957 9741
L29986 9741
L30004 9750
L30014 9760
L30023 9778
L30023 9825
L30014 9844
L30004 9853
L29986 9863
L29929 9863
L29911 9853
L29901 9844
" />
<path d="M14844 2494
L14778 2400
" />
<path d="M14731 2494
L14731 2297
L14806 2297
L14825 2306
L14834 2316
L14844 2334
L14844 2363
L14834 2381
L14825 2391
L14806 2400
L14731 2400
" />
<path d="M14928 2494
L14928 2297
L15040 2494
L15040 2297
" />
<path d="M15218 2363
L15218 2494
" />
<path d="M15172 2288
L15125 2428
L15247 2428
" />
<path d="M29854 2508
L29761 2574
" />
<path d="M29854 2620
L29657 2620
L29657 2545
L29667 2527
L29676 2517
L29695 2508
L29723 2508
L29742 2517
L29751 2527
L29761 2545
L29761 2620
" />
<path d="M29854 2424
L29657 2424
L29854 2311
L29657 2311
" />
<path d="M29657 2124
L29657 2217
L29751 2227
L29742 2217
L29732 2199
L29732 2152
L29742 2133
L29751 2124
L29770 2114
L29817 2114
L29836 2124
L29845 2133
L29854 2152
L29854 2199
L29845 2217
L29836 2227
" />
</g>
<g style="fill:#C2C200; fill-opacity:0.0; 
stroke:#C2C200; stroke-width:59.0551; stroke-opacity:1; 
stroke-linecap:round; stroke-linejoin:round;">
<path d="M34741 3771
L34741 4089
L34760 4127
L34778 4146
L34816 4164
L34891 4164
L34928 4146
L34947 4127
L34966 4089
L34966 3771
" />
<path d="M35322 3902
L35322 4164
" />
<path d="M35228 3752
L35135 4033
L35378 4033
" />
<path d="M32701 5224
L32720 5242
L32739 5299
L32739 5336
L32720 5392
L32682 5430
L32645 5449
L32570 5467
L32514 5467
L32439 5449
L32401 5430
L32364 5392
L32345 5336
L32345 5299
L32364 5242
L32382 5224
" />
<path d="M32739 4849
L32739 5074
" />
<path d="M32739 4961
L32345 4961
L32401 4999
L32439 5036
L32457 5074
" />
<path d="M32514 4624
L32495 4661
L32476 4680
L32439 4699
L32420 4699
L32382 4680
L32364 4661
L32345 4624
L32345 4549
L32364 4511
L32382 4492
L32420 4474
L32439 4474
L32476 4492
L32495 4511
L32514 4549
L32514 4624
L32532 4661
L32551 4680
L32589 4699
L32664 4699
L32701 4680
L32720 4661
L32739 4624
L32739 4549
L32720 4511
L32701 4492
L32664 4474
L32589 4474
L32551 4492
L32532 4511
L32514 4549
" />
<path d="M31426 1795
L31408 1814
L31351 1833
L31314 1833
L31258 1814
L31220 1777
L31201 1739
L31183 1664
L31183 1608
L31201 1533
L31220 1495
L31258 1458
L31314 1439
L31351 1439
L31408 1458
L31426 1477
" />
<path d="M31576 1477
L31595 1458
L31633 1439
L31726 1439
L31764 1458
L31783 1477
L31801 1514
L31801 1552
L31783 1608
L31558 1833
L31801 1833
" />
<path d="M31933 1439
L32176 1439
L32045 1589
L32101 1589
L32139 1608
L32157 1627
L32176 1664
L32176 1758
L32157 1795
L32139 1814
L32101 1833
L31989 1833
L31951 1814
L31933 1795
" />
<path d="M37239 9833
L37239 9439
L37389 9439
L37426 9458
L37445 9477
L37464 9514
L37464 9570
L37445 9608
L37426 9627
L37389 9645
L37239 9645
" />
<path d="M37595 9439
L37839 9439
L37708 9589
L37764 9589
L37801 9608
L37820 9627
L37839 9664
L37839 9758
L37820 9795
L37801 9814
L37764 9833
L37651 9833
L37614 9814
L37595 9795
" />
<path d="M9589 1883
L9589 1489
L9739 1489
L9776 1508
L9795 1527
L9814 1564
L9814 1620
L9795 1658
L9776 1677
L9739 1695
L9589 1695
" />
<path d="M10151 1620
L10151 1883
" />
<path d="M10058 1470
L9964 1752
L10208 1752
" />
<path d="M41704 6014
L41761 6033
L41854 6033
L41892 6014
L41911 5995
L41929 5958
L41929 5920
L41911 5883
L41892 5864
L41854 5845
L41779 5827
L41742 5808
L41723 5789
L41704 5752
L41704 5714
L41723 5677
L41742 5658
L41779 5639
L41873 5639
L41929 5658
" />
<path d="M42061 5639
L42154 6033
L42229 5752
L42304 6033
L42398 5639
" />
<path d="M42754 6033
L42529 6033
" />
<path d="M42642 6033
L42642 5639
L42604 5695
L42567 5733
L42529 5752
" />
</g>
<g style="fill:#C2C200; fill-opacity:0.0; 
stroke:#C2C200; stroke-width:39.3701; stroke-opacity:1; 
stroke-linecap:round; stroke-linejoin:round;">
<path d="M31537 7096
L30907 7096
" />
<path d="M30907 7096
L30907 5837
" />
<path d="M30907 5837
L31537 5837
" />
<path d="M31537 5837
L31537 7096
" />
<path d="M25828 1852
L25828 2341
" />
<path d="M25041 1852
L25828 1852
" />
<path d="M25041 2341
L25041 1852
" />
<path d="M25828 2341
L25041 2341
" />
<path d="M37226 5128
L37423 5128
" />
<path d="M37226 5522
L37226 5128
" />
<path d="M37423 5522
L37226 5522
" />
<path d="M37423 5128
L37423 5522
" />
<path d="M10671 5541
L10671 5738
" />
<path d="M10277 5541
L10671 5541
" />
<path d="M10277 5738
L10277 5541
" />
<path d="M10671 5738
L10277 5738
" />
<path d="M37710 5167
L38198 5167
" />
<path d="M37710 5955
L37710 5167
" />
<path d="M38198 5955
L37710 5955
" />
<path d="M38198 5167
L38198 5955
" />
<path d="M39923 7065
L39923 6577
" />
<path d="M40710 7065
L39923 7065
" />
<path d="M40710 6577
L40710 7065
" />
<path d="M39923 6577
L40710 6577
" />
<path d="M14588 5994
L14391 5994
" />
<path d="M14588 5600
L14588 5994
" />
<path d="M14391 5600
L14588 5600
" />
<path d="M14391 5994
L14391 5600
" />
<path d="M13525 6230
L13722 6230
" />
<path d="M13525 6624
L13525 6230
" />
<path d="M13722 6624
L13525 6624
" />
<path d="M13722 6230
L13722 6624
" />
<path d="M37907 8120
L38395 8120
" />
<path d="M37907 8907
L37907 8120
" />
<path d="M38395 8907
L37907 8907
" />
<path d="M38395 8120
L38395 8907
" />
<path d="M13722 5797
L13525 5797
" />
<path d="M13722 5404
L13722 5797
" />
<path d="M13525 5404
L13722 5404
" />
<path d="M13525 5797
L13525 5404
" />
<path d="M40505 8081
L40994 8081
" />
<path d="M40505 8868
L40505 8081
" />
<path d="M40994 8868
L40505 8868
" />
<path d="M40994 8081
L40994 8868
" />
<path d="M34183 8789
L33694 8789
" />
<path d="M34183 8002
L34183 8789
" />
<path d="M33694 8002
L34183 8002
" />
<path d="M33694 8789
L33694 8002
" />
<path d="M12974 4498
L13171 4498
" />
<path d="M12974 4892
L12974 4498
" />
<path d="M13171 4892
L12974 4892
" />
<path d="M13171 4498
L13171 4892
" />
<path d="M12600 4872
L12600 5069
" />
<path d="M12206 4872
L12600 4872
" />
<path d="M12206 5069
L12206 4872
" />
<path d="M12600 5069
L12206 5069
" />
<path d="M10651 6112
L10848 6112
" />
<path d="M10651 6506
L10651 6112
" />
<path d="M10848 6506
L10651 6506
" />
<path d="M10848 6112
L10848 6506
" />
<path d="M10671 6880
L10671 7077
" />
<path d="M10277 6880
L10671 6880
" />
<path d="M10277 7077
L10277 6880
" />
<path d="M10671 7077
L10277 7077
" />
<path d="M11635 4498
L11832 4498
" />
<path d="M11635 4892
L11635 4498
" />
<path d="M11832 4892
L11635 4892
" />
<path d="M11832 4498
L11832 4892
" />
<path d="M35494 7844
L35297 7844
" />
<path d="M35494 7451
L35494 7844
" />
<path d="M35297 7451
L35494 7451
" />
<path d="M35297 7844
L35297 7451
" />
<path d="M36387 9065
L35899 9065
" />
<path d="M36387 8278
L36387 9065
" />
<path d="M35899 8278
L36387 8278
" />
<path d="M35899 9065
L35899 8278
" />
<path d="M37135 9065
L36647 9065
" />
<path d="M37135 8278
L37135 9065
" />
<path d="M36647 8278
L37135 8278
" />
<path d="M36647 9065
L36647 8278
" />
<path d="M30927 3159
L31124 3159
" />
<path d="M30927 3553
L30927 3159
" />
<path d="M31124 3553
L30927 3553
" />
<path d="M31124 3159
L31124 3553
" />
<path d="M32659 2608
L32462 2608
" />
<path d="M32659 2215
L32659 2608
" />
<path d="M32462 2215
L32659 2215
" />
<path d="M32462 2608
L32462 2215
" />
<path d="M31281 4498
L31478 4498
" />
<path d="M31281 4892
L31281 4498
" />
<path d="M31478 4892
L31281 4892
" />
<path d="M31478 4498
L31478 4892
" />
<path d="M32462 4498
L32659 4498
" />
<path d="M32462 4892
L32462 4498
" />
<path d="M32659 4892
L32462 4892
" />
<path d="M32659 4498
L32659 4892
" />
<path d="M22462 2175
L22265 2175
" />
<path d="M22462 1781
L22462 2175
" />
<path d="M22265 1781
L22462 1781
" />
<path d="M22265 2175
L22265 1781
" />
<path d="M21812 1852
L21812 2341
" />
<path d="M21025 1852
L21812 1852
" />
<path d="M21025 2341
L21025 1852
" />
<path d="M21812 2341
L21025 2341
" />
<path d="M26478 2175
L26281 2175
" />
<path d="M26478 1781
L26478 2175
" />
<path d="M26281 1781
L26478 1781
" />
<path d="M26281 2175
L26281 1781
" />
<path d="M18446 2175
L18250 2175
" />
<path d="M18446 1781
L18446 2175
" />
<path d="M18250 1781
L18446 1781
" />
<path d="M18250 2175
L18250 1781
" />
<path d="M17797 1852
L17797 2341
" />
<path d="M17009 1852
L17797 1852
" />
<path d="M17009 2341
L17009 1852
" />
<path d="M17797 2341
L17009 2341
" />
<path d="M40316 10167
L40316 10325
" />
<path d="M40336 10246
L40454 10167
" />
<path d="M40454 10325
L40336 10246
" />
<path d="M40454 10167
L40454 10325
" />
<path d="M40710 10404
L40080 10404
" />
<path d="M40710 10089
L40710 10404
" />
<path d="M40080 10089
L40710 10089
" />
<path d="M40080 10404
L40080 10089
" />
<path d="M39096 10167
L39096 10325
" />
<path d="M39116 10246
L39234 10167
" />
<path d="M39234 10325
L39116 10246
" />
<path d="M39234 10167
L39234 10325
" />
<path d="M39490 10404
L38860 10404
" />
<path d="M39490 10089
L39490 10404
" />
<path d="M38860 10089
L39490 10089
" />
<path d="M38860 10404
L38860 10089
" />
<path d="M6379 4380
L6379 2569
" />
<path d="M6379 2569
L7561 2569
" />
<path d="M7561 4380
L6379 4380
" />
<path d="M7561 4380
L7561 2569
" />
<path d="M6970 3219
L6970 2864
" />
<path d="M6970 3672
L6970 4065
" />
<path d="M7285 3219
L6655 3219
" />
<path d="M6675 3672
L7285 3672
" />
<path d="M6970 3219
L6675 3672
" />
<path d="M6970 3219
L7285 3672
" />
<path d="M6379 10049
L6379 8238
" />
<path d="M6379 8238
L7561 8238
" />
<path d="M7561 10049
L6379 10049
" />
<path d="M7561 10049
L7561 8238
" />
<path d="M6970 8888
L6970 8533
" />
<path d="M6970 9341
L6970 9734
" />
<path d="M7285 8888
L6655 8888
" />
<path d="M6675 9341
L7285 9341
" />
<path d="M6970 8888
L6675 9341
" />
<path d="M6970 8888
L7285 9341
" />
<path d="M4883 4380
L4883 2569
" />
<path d="M4883 2569
L6064 2569
" />
<path d="M6064 4380
L4883 4380
" />
<path d="M6064 4380
L6064 2569
" />
<path d="M5474 3219
L5474 2864
" />
<path d="M5474 3672
L5474 4065
" />
<path d="M5789 3219
L5159 3219
" />
<path d="M5179 3672
L5789 3672
" />
<path d="M5474 3219
L5179 3672
" />
<path d="M5474 3219
L5789 3672
" />
<path d="M4883 10049
L4883 8238
" />
<path d="M4883 8238
L6064 8238
" />
<path d="M6064 10049
L4883 10049
" />
<path d="M6064 10049
L6064 8238
" />
<path d="M5474 8888
L5474 8533
" />
<path d="M5474 9341
L5474 9734
" />
<path d="M5789 8888
L5159 8888
" />
<path d="M5179 9341
L5789 9341
" />
<path d="M5474 8888
L5179 9341
" />
<path d="M5474 8888
L5789 9341
" />
<path d="M38309 4183
L38053 3927
" />
<path d="M38053 3474
L38053 3927
" />
<path d="M38309 4183
L39273 4183
" />
<path d="M39273 3474
L39273 4183
" />
<path d="M38053 3474
L39273 3474
" />
<path d="M41805 1841
L41805 4793
" />
<path d="M39836 1841
L41805 1841
" />
<path d="M39836 4793
L39836 1841
" />
<path d="M41805 4793
L39836 4793
" />
<path d="M11785 8091
L11785 10591
" />
<path d="M11785 10591
L12785 10591
" />
<path d="M12785 10591
L12785 8091
" />
<path d="M12785 8091
L11785 8091
" />
<path d="M11785 8262
L11785 8419
" />
<path d="M11785 8419
L11279 8419
" />
<path d="M11279 8419
L11279 8262
" />
<path d="M11279 8262
L11785 8262
" />
<path d="M12785 8262
L12785 8419
" />
<path d="M12785 8419
L13291 8419
" />
<path d="M13291 8419
L13291 8262
" />
<path d="M13291 8262
L12785 8262
" />
<path d="M11785 8762
L11785 8919
" />
<path d="M11785 8919
L11279 8919
" />
<path d="M11279 8919
L11279 8762
" />
<path d="M11279 8762
L11785 8762
" />
<path d="M12785 8762
L12785 8919
" />
<path d="M12785 8919
L13291 8919
" />
<path d="M13291 8919
L13291 8762
" />
<path d="M13291 8762
L12785 8762
" />
<path d="M11785 9262
L11785 9419
" />
<path d="M11785 9419
L11279 9419
" />
<path d="M11279 9419
L11279 9262
" />
<path d="M11279 9262
L11785 9262
" />
<path d="M12785 9262
L12785 9419
" />
<path d="M12785 9419
L13291 9419
" />
<path d="M13291 9419
L13291 9262
" />
<path d="M13291 9262
L12785 9262
" />
<path d="M11785 9762
L11785 9919
" />
<path d="M11785 9919
L11279 9919
" />
<path d="M11279 9919
L11279 9762
" />
<path d="M11279 9762
L11785 9762
" />
<path d="M12785 9762
L12785 9919
" />
<path d="M12785 9919
L13291 9919
" />
<path d="M13291 9919
L13291 9762
" />
<path d="M13291 9762
L12785 9762
" />
<path d="M11785 10262
L11785 10419
" />
<path d="M11785 10419
L11279 10419
" />
<path d="M11279 10419
L11279 10262
" />
<path d="M11279 10262
L11785 10262
" />
<path d="M12785 10262
L12785 10419
" />
<path d="M12785 10419
L13291 10419
" />
<path d="M13291 10419
L13291 10262
" />
<path d="M13291 10262
L12785 10262
" />
<path d="M8545 7175
L8230 7490
" />
<path d="M8545 7096
L8545 7451
" />
<path d="M8545 7451
L8505 7490
" />
<path d="M8505 7490
L8151 7490
" />
<path d="M8545 7096
L8545 5128
" />
<path d="M8151 7490
L4923 7490
" />
<path d="M4923 7490
L4923 5128
" />
<path d="M4923 5128
L8545 5128
" />
<path d="M39175 1781
L39175 2096
" />
<path d="M38545 1781
L39175 1781
" />
<path d="M38545 2096
L38545 1781
" />
<path d="M39175 2096
L38545 2096
" />
<path d="M39175 2490
L39175 2805
" />
<path d="M38545 2490
L39175 2490
" />
<path d="M38545 2805
L38545 2490
" />
<path d="M39175 2805
L38545 2805
" />
<path d="M39214 5443
L38899 5443
" />
<path d="M39214 4813
L39214 5443
" />
<path d="M38899 4813
L39214 4813
" />
<path d="M38899 5443
L38899 4813
" />
<path d="M29431 6014
L29431 5010
" />
<path d="M29431 6014
L30100 6014
" />
<path d="M29647 4793
L29431 5010
" />
<path d="M29647 4793
L30100 4793
" />
<path d="M30100 4805
L30100 6002
" />
<path d="M29431 4518
L29431 3514
" />
<path d="M29431 4518
L30100 4518
" />
<path d="M29647 3297
L29431 3514
" />
<path d="M29647 3297
L30100 3297
" />
<path d="M30100 3309
L30100 4506
" />
</g>
<g style="fill:#C2C200; fill-opacity:0.0; 
stroke:#C2C200; stroke-width:19.685; stroke-opacity:1; 
stroke-linecap:round; stroke-linejoin:round;">
<path d="M23033 2254
L23033 1939
" />
<path d="M23033 1939
L22718 1939
" />
<path d="M22718 1939
L22718 2254
" />
<path d="M22718 2254
L23033 2254
" />
</g>
<g style="fill:#C2C200; fill-opacity:0.0; 
stroke:#C2C200; stroke-width:39.3701; stroke-opacity:1; 
stroke-linecap:round; stroke-linejoin:round;">
<path d="M16281 4793
L16281 5797
" />
<path d="M16281 4793
L15612 4793
" />
<path d="M16064 6014
L16281 5797
" />
<path d="M16064 6014
L15612 6014
" />
<path d="M15612 6002
L15612 4805
" />
<path d="M16281 6289
L16281 7293
" />
<path d="M16281 6289
L15612 6289
" />
<path d="M16064 7510
L16281 7293
" />
<path d="M16064 7510
L15612 7510
" />
<path d="M15612 7498
L15612 6301
" />
</g>
<g style="fill:#C2C200; fill-opacity:0.0; 
stroke:#C2C200; stroke-width:19.685; stroke-opacity:1; 
stroke-linecap:round; stroke-linejoin:round;">
<path d="M27049 2254
L27049 1939
" />
<path d="M27049 1939
L26734 1939
" />
<path d="M26734 1939
L26734 2254
" />
<path d="M26734 2254
L27049 2254
" />
</g>
<g style="fill:#C2C200; fill-opacity:0.0; 
stroke:#C2C200; stroke-width:39.3701; stroke-opacity:1; 
stroke-linecap:round; stroke-linejoin:round;">
<path d="M16281 7785
L16281 8789
" />
<path d="M16281 7785
L15612 7785
" />
<path d="M16064 9006
L16281 8789
" />
<path d="M16064 9006
L15612 9006
" />
<path d="M15612 8994
L15612 7797
" />
<path d="M29431 7510
L29431 6506
" />
<path d="M29431 7510
L30100 7510
" />
<path d="M29647 6289
L29431 6506
" />
<path d="M29647 6289
L30100 6289
" />
<path d="M30100 6301
L30100 7498
" />
<path d="M29431 9006
L29431 8002
" />
<path d="M29431 9006
L30100 9006
" />
<path d="M29647 7785
L29431 8002
" />
<path d="M29647 7785
L30100 7785
" />
<path d="M30100 7797
L30100 8994
" />
</g>
<g style="fill:#C2C200; fill-opacity:0.0; 
stroke:#C2C200; stroke-width:19.685; stroke-opacity:1; 
stroke-linecap:round; stroke-linejoin:round;">
<path d="M19017 2254
L19017 1939
" />
<path d="M19017 1939
L18702 1939
" />
<path d="M18702 1939
L18702 2254
" />
<path d="M18702 2254
L19017 2254
" />
</g>
<g style="fill:#C2C200; fill-opacity:0.0; 
stroke:#C2C200; stroke-width:39.3701; stroke-opacity:1; 
stroke-linecap:round; stroke-linejoin:round;">
<path d="M16281 3297
L16281 4301
" />
<path d="M16281 3297
L15612 3297
" />
<path d="M16064 4518
L16281 4301
" />
<path d="M16064 4518
L15612 4518
" />
<path d="M15612 4506
L15612 3309
" />
<path d="M38053 6821
L38250 6821
" />
<path d="M38053 7215
L38053 6821
" />
<path d="M38250 7215
L38053 7215
" />
<path d="M38250 6821
L38250 7215
" />
<path d="M38879 9537
L38683 9537
" />
<path d="M38879 9144
L38879 9537
" />
<path d="M38683 9144
L38879 9144
" />
<path d="M38683 9537
L38683 9144
" />
<path d="M39273 6624
L39470 6624
" />
<path d="M39273 7018
L39273 6624
" />
<path d="M39470 7018
L39273 7018
" />
<path d="M39470 6624
L39470 7018
" />
<path d="M40868 7431
L40868 7628
" />
<path d="M40474 7431
L40868 7431
" />
<path d="M40474 7628
L40474 7431
" />
<path d="M40868 7628
L40474 7628
" />
<path d="M38564 6624
L38761 6624
" />
<path d="M38564 7018
L38564 6624
" />
<path d="M38761 7018
L38564 7018
" />
<path d="M38761 6624
L38761 7018
" />
<path d="M37954 7667
L37954 7470
" />
<path d="M38348 7667
L37954 7667
" />
<path d="M38348 7470
L38348 7667
" />
<path d="M37954 7470
L38348 7470
" />
<path d="M40572 9734
L40375 9734
" />
<path d="M40572 9341
L40572 9734
" />
<path d="M40375 9341
L40572 9341
" />
<path d="M40375 9734
L40375 9341
" />
<path d="M39687 9793
L39687 9596
" />
<path d="M40080 9793
L39687 9793
" />
<path d="M40080 9596
L40080 9793
" />
<path d="M39687 9596
L40080 9596
" />
<path d="M39352 9537
L39155 9537
" />
<path d="M39352 9144
L39352 9537
" />
<path d="M39155 9144
L39352 9144
" />
<path d="M39155 9537
L39155 9144
" />
<path d="M39687 9321
L39687 9124
" />
<path d="M40080 9321
L39687 9321
" />
<path d="M40080 9124
L40080 9321
" />
<path d="M39687 9124
L40080 9124
" />
<path d="M12738 4616
L12541 4616
" />
<path d="M12738 4222
L12738 4616
" />
<path d="M12541 4222
L12738 4222
" />
<path d="M12541 4616
L12541 4222
" />
<path d="M12265 4616
L12068 4616
" />
<path d="M12265 4222
L12265 4616
" />
<path d="M12068 4222
L12265 4222
" />
<path d="M12068 4616
L12068 4222
" />
<path d="M10395 5974
L10395 6171
" />
<path d="M10001 5974
L10395 5974
" />
<path d="M10001 6171
L10001 5974
" />
<path d="M10395 6171
L10001 6171
" />
<path d="M10395 6447
L10395 6644
" />
<path d="M10001 6447
L10395 6447
" />
<path d="M10001 6644
L10001 6447
" />
<path d="M10395 6644
L10001 6644
" />
<path d="M12875 3868
L12561 3868
" />
<path d="M12875 3238
L12875 3868
" />
<path d="M12561 3238
L12875 3238
" />
<path d="M12561 3868
L12561 3238
" />
<path d="M12246 3868
L11931 3868
" />
<path d="M12246 3238
L12246 3868
" />
<path d="M11931 3238
L12246 3238
" />
<path d="M11931 3868
L11931 3238
" />
<path d="M35100 7805
L34903 7805
" />
<path d="M35100 7411
L35100 7805
" />
<path d="M34903 7411
L35100 7411
" />
<path d="M34903 7805
L34903 7411
" />
<path d="M37324 3888
L37324 3691
" />
<path d="M37718 3888
L37324 3888
" />
<path d="M37718 3691
L37718 3888
" />
<path d="M37324 3691
L37718 3691
" />
<path d="M37324 3415
L37324 3218
" />
<path d="M37718 3415
L37324 3415
" />
<path d="M37718 3218
L37718 3415
" />
<path d="M37324 3218
L37718 3218
" />
<path d="M30809 4577
L31005 4577
" />
<path d="M30809 4970
L30809 4577
" />
<path d="M31005 4970
L30809 4970
" />
<path d="M31005 4577
L31005 4970
" />
<path d="M14253 10423
L14253 10226
" />
<path d="M14647 10423
L14253 10423
" />
<path d="M14647 10226
L14647 10423
" />
<path d="M14253 10226
L14647 10226
" />
<path d="M15316 10089
L15316 9459
" />
<path d="M15316 9459
L16576 9459
" />
<path d="M16576 9459
L16576 10089
" />
<path d="M16576 10089
L15316 10089
" />
<path d="M29135 10089
L29135 9459
" />
<path d="M29135 9459
L30395 9459
" />
<path d="M30395 9459
L30395 10089
" />
<path d="M30395 10089
L29135 10089
" />
<path d="M16261 3002
L15631 3002
" />
<path d="M15631 3002
L15631 1742
" />
<path d="M15631 1742
L16261 1742
" />
<path d="M16261 1742
L16261 3002
" />
<path d="M30080 3002
L29450 3002
" />
<path d="M29450 3002
L29450 1742
" />
<path d="M29450 1742
L30080 1742
" />
<path d="M30080 1742
L30080 3002
" />
</g>
<g style="fill:#C2C200; fill-opacity:0.0; 
stroke:#C2C200; stroke-width:59.0551; stroke-opacity:1; 
stroke-linecap:round; stroke-linejoin:round;">
<path d="M39214 7490
L40001 7490
" />
<path d="M40001 7490
L40001 8671
" />
<path d="M40001 8671
L38820 8671
" />
<path d="M38820 8671
L38820 7884
" />
<path d="M38820 7884
L39214 7490
" />
<path d="M13269 5837
L13269 7411
" />
<path d="M13269 7411
L11301 7411
" />
<path d="M11301 7411
L11301 5443
" />
<path d="M11301 5443
L12875 5443
" />
<path d="M12875 5443
L13269 5837
" />
<path d="M34057 2608
L36419 2608
" />
<path d="M36419 2608
L36419 5364
" />
<path d="M36419 5364
L33663 5364
" />
<path d="M33663 5364
L33663 3002
" />
<path d="M33663 3002
L34057 2608
" />
</g>
<g style="fill:#C2C200; fill-opacity:0.0; 
stroke:#C2C200; stroke-width:39.3701; stroke-opacity:1; 
stroke-linecap:round; stroke-linejoin:round;">
<path d="M34549 9281
L34549 8297
" />
<path d="M34549 8297
L35533 8297
" />
<path d="M35533 8297
L35533 9281
" />
<path d="M35533 9281
L34549 9281
" />
<path d="M20956 9104
L20956 3199
" />
<path d="M20956 3199
L24814 3199
" />
<path d="M24814 3199
L24814 9104
" />
<path d="M24814 9104
L20956 9104
" />
<path d="M24972 9104
L24972 3199
" />
<path d="M24972 3199
L28830 3199
" />
<path d="M28830 3199
L28830 9104
" />
<path d="M28830 9104
L24972 9104
" />
<path d="M16931 9104
L16931 3199
" />
<path d="M16931 3199
L20789 3199
" />
<path d="M20789 3199
L20789 9104
" />
<path d="M20789 9104
L16931 9104
" />
<path d="M31726 4577
L32214 4577
" />
<path d="M31726 5364
L31726 4577
" />
<path d="M32214 5364
L31726 5364
" />
<path d="M32214 4577
L32214 5364
" />
<path d="M32049 2207
L32049 2695
" />
<path d="M31261 2207
L32049 2207
" />
<path d="M31261 2695
L31261 2207
" />
<path d="M32049 2695
L31261 2695
" />
<path d="M36273 10707
L38273 10707
" />
<path d="M38273 10707
L38273 9707
" />
<path d="M38273 9707
L36273 9707
" />
<path d="M36273 9707
L36273 10707
" />
<path d="M10856 1990
L8856 1990
" />
<path d="M8856 1990
L8856 2990
" />
<path d="M8856 2990
L10856 2990
" />
<path d="M10856 2990
L10856 1990
" />
<path d="M39383 6297
L41383 6297
" />
<path d="M41383 6297
L41383 5297
" />
<path d="M41383 5297
L39383 5297
" />
<path d="M39383 5297
L39383 6297
" />
</g> 
</svg>
